<svg width="12" height="16" viewBox="0 0 12 16" fill="none" xmlns="http://www.w3.org/2000/svg">
<path d="M11.8929 6.41829C10.6587 10.7203 5.92751 16 5.92751 16C5.92751 16 1.88203 10.629 0.544969 7.91747C-1.25835 4.28033 1.68319 0.408543 5.42011 0.0304888C8.34794 -0.269347 11.1455 1.67307 11.886 4.50195C12.0986 5.17984 11.9614 6.05979 11.8929 6.41829ZM5.96179 14.2988C6.31149 13.8555 6.58575 13.5101 6.84631 13.1646C8.15595 11.4308 9.41073 9.67086 10.357 7.72845C11.0838 6.2423 11.1386 4.77571 10.2473 3.35475C9.12961 1.58181 7.42228 0.884369 5.28983 1.12554C2.05345 1.48404 0.325553 4.73661 1.3952 7.08315C1.86146 8.11302 2.37572 9.12985 2.99282 10.0815C3.91163 11.4959 4.93328 12.8517 5.96179 14.2988Z" fill="#359444"/>
<path d="M8.99997 6.01504C8.99246 7.61653 7.5732 9.00749 5.96621 8.99997C4.39676 8.99245 2.99252 7.56389 3.00003 5.98496C3.00754 4.38348 4.4268 2.99251 6.03379 3.00003C7.59573 3.00003 9.00748 4.42859 8.99997 6.01504ZM7.79848 6.01504C7.80599 4.94738 7.06257 4.19551 5.98874 4.19551C4.96747 4.19551 4.21654 4.93234 4.20152 5.95489C4.1865 7.02255 4.92241 7.78194 5.98874 7.79697C7.02502 7.81201 7.79097 7.06014 7.79848 6.01504Z" fill="#359444"/>
</svg>
