<svg width="16" height="16" viewBox="0 0 16 16" fill="none" xmlns="http://www.w3.org/2000/svg">
<path d="M15.1327 10.3125L11.958 8.95157C11.6731 8.83037 11.3565 8.80475 11.0557 8.87855C10.7549 8.95235 10.4861 9.12159 10.2896 9.36094L9.26775 10.6109C7.62851 9.7175 6.2812 8.37094 5.38684 6.73219L6.63683 5.71032C6.87617 5.51357 7.04539 5.24464 7.11918 4.94372C7.19298 4.64281 7.16737 4.3261 7.04621 4.04095L5.68747 0.868452C5.55632 0.55971 5.32053 0.307085 5.02155 0.154995C4.72258 0.00290402 4.37955 -0.0389148 4.05279 0.0368906L1.10937 0.715327C0.793547 0.787002 0.511564 0.964145 0.309903 1.21756C0.108242 1.47097 -0.00106151 1.78553 7.77134e-06 2.10939C7.77134e-06 9.805 6.23996 16.0031 13.8924 16C14.2162 16.001 14.5307 15.8916 14.784 15.6898C15.0373 15.4881 15.2143 15.2061 15.2858 14.8903L15.964 11.9459C16.0387 11.6194 15.9964 11.277 15.8445 10.9785C15.6926 10.68 15.4407 10.4443 15.1327 10.3125ZM13.833 14.5028C7.03371 14.4716 1.53125 8.96875 1.5 2.16564L4.33404 1.51251L5.64934 4.58188L3.52154 6.32282C4.97122 9.41656 6.58996 11.03 9.67775 12.4791L11.418 10.3506L14.4865 11.6666L13.833 14.5028Z" fill="#359444"/>
</svg>
