<svg width="55" height="56" viewBox="0 0 55 56" fill="none" xmlns="http://www.w3.org/2000/svg">
<path d="M33.6782 49.2077C34.8155 49.2077 35.806 49.2077 36.7965 49.2077C39.4624 49.2077 42.1283 49.2077 44.7942 49.2077C46.4206 49.2077 47.8514 50.5828 47.8514 52.1283C47.8514 53.6738 46.4206 55.0368 44.7819 55.0368C30.89 55.0368 16.9859 55.0368 3.09397 55.0368C1.41862 55.0368 -0.012151 53.6738 7.78165e-05 52.0918C0.0123066 50.6315 1.41861 49.2077 2.8983 49.2077C6.39573 49.1956 9.89318 49.2077 13.3906 49.2077C13.5985 49.2077 13.8186 49.2077 14.1121 49.2077C12.9748 48.3559 11.8987 47.6136 10.8959 46.7739C5.24623 42.0279 1.76103 36.0285 0.477004 28.7757C-0.0977496 25.563 0.0367642 22.326 7.78165e-05 19.089C7.78165e-05 18.4319 0.379168 18.1033 1.1129 18.1033C3.69317 18.1033 6.28568 18.1033 8.86596 18.1033C21.4983 18.1033 34.1306 18.1033 46.763 18.1033C51.3243 18.1033 54.9685 21.9731 54.6628 26.5122C54.4549 29.7735 51.52 32.9984 48.2671 33.5095C47.6924 33.6068 47.0932 33.5703 46.5062 33.6555C46.3228 33.6798 46.0537 33.838 45.9926 33.9962C43.5958 40.2877 39.5969 45.3014 33.9228 48.9765C33.8861 49.013 33.8494 49.0617 33.6782 49.2077ZM1.95669 20.0747C2.11566 23.1657 1.90778 26.208 2.54367 29.2138C4.47582 38.3893 9.70974 44.9728 18.1721 49.0617C18.3922 49.1712 18.6735 49.2077 18.9303 49.2077C22.2443 49.2199 25.5583 49.2199 28.8723 49.2077C29.178 49.2077 29.5204 49.1225 29.8017 49.0008C33.8616 47.1268 37.2734 44.4374 40.0127 40.9205C43.0577 37.002 44.9654 32.5846 45.5279 27.6561C45.7969 25.2953 45.7725 22.8979 45.8825 20.5128C45.8825 20.3789 45.8581 20.2451 45.8458 20.099C41.9571 20.099 38.105 20.099 34.1918 20.099C34.1918 21.462 34.1796 22.7884 34.204 24.127C34.204 24.2852 34.4119 24.4921 34.5709 24.6016C35.5247 25.2223 36.4908 25.8185 37.4569 26.4027C37.8971 26.6704 38.0928 27.0233 38.0928 27.5466C38.0806 30.0169 38.0928 32.4873 38.0805 34.9576C38.0805 35.7729 37.7504 36.1015 36.9433 36.1015C34.4608 36.1015 31.9784 36.1015 29.4959 36.1015C28.6399 36.1015 28.3097 35.7729 28.3097 34.9333C28.3097 32.4873 28.322 30.0291 28.2975 27.5831C28.2975 26.999 28.5176 26.6461 28.9946 26.354C29.9606 25.782 30.89 25.1858 31.8316 24.5773C31.9784 24.4799 32.1863 24.2974 32.1863 24.1514C32.2107 22.8006 32.1985 21.4498 32.1985 20.0747C22.122 20.0747 12.0821 20.0747 1.95669 20.0747ZM23.8707 53.0897C29.6671 53.0897 35.4636 53.0897 41.26 53.0897C42.4585 53.0897 43.6569 53.1019 44.8553 53.0897C45.6991 53.0775 46.1393 52.3839 45.7847 51.6294C45.5523 51.1183 45.0877 51.1426 44.6352 51.1426C33.079 51.1426 21.5228 51.1426 9.96655 51.1426C7.64308 51.1426 5.33183 51.1305 3.00836 51.1426C2.14011 51.1426 1.7121 51.8119 2.04228 52.5786C2.2624 53.1019 2.7271 53.0897 3.17957 53.0897C10.0766 53.0897 16.9736 53.0897 23.8707 53.0897ZM46.7263 31.6963C48.8419 31.6476 50.5784 30.9661 51.7157 29.2138C53.0364 27.1815 53.0975 25.0276 51.948 22.8979C51.092 21.316 49.6857 20.4519 47.8514 20.1477C47.8391 24.0662 47.8514 27.9116 46.7263 31.6963ZM36.0506 34.1301C36.075 34.0814 36.1239 34.0327 36.1239 33.9841C36.1362 32.037 36.1362 30.1021 36.1239 28.155C36.1239 27.9968 35.9528 27.8021 35.806 27.7048C35.0967 27.2423 34.3508 26.8164 33.6415 26.3418C33.3236 26.1349 33.0912 26.1106 32.7733 26.3297C32.1007 26.7799 31.4159 27.218 30.7066 27.6074C30.352 27.8021 30.2664 28.0455 30.2664 28.4349C30.2908 30.0291 30.2786 31.6354 30.2786 33.2296C30.2786 33.5216 30.2786 33.8137 30.2786 34.1301C32.2474 34.1301 34.1429 34.1301 36.0506 34.1301Z" fill="white"/>
<path d="M25.0929 0.355957C26.8888 0.355957 28.6723 0.355957 30.4682 0.355957C31.2113 0.355957 31.6324 0.704018 31.6448 1.32556C31.6572 1.98439 31.2484 2.34488 30.4682 2.34488C26.9507 2.34488 23.4209 2.33245 19.9034 2.34488C18.3304 2.34488 17.4758 3.5258 17.9217 5.01749C18.1818 5.87521 18.8506 6.31029 19.9282 6.32272C22.4796 6.32272 25.0433 6.32272 27.5947 6.32272C29.7374 6.32272 31.6448 8.16247 31.6572 10.2384C31.6695 12.4014 29.8117 14.2535 27.6319 14.266C26.381 14.266 25.1177 14.266 23.8667 14.266C23.1731 14.266 22.7644 13.9055 22.752 13.2964C22.7397 12.6624 23.1484 12.2895 23.8791 12.277C25.13 12.2646 26.3934 12.2895 27.6443 12.277C29.1429 12.2522 29.9727 11.121 29.5764 9.66659C29.3287 8.75914 28.6847 8.31164 27.5576 8.31164C25.0062 8.29921 22.4424 8.31164 19.891 8.31164C17.6988 8.31164 15.8286 6.47189 15.8286 4.3338C15.8286 2.20814 17.7112 0.380819 19.9158 0.380819C21.625 0.355957 23.3589 0.355957 25.0929 0.355957Z" fill="white"/>
</svg>
