<svg width="60" height="45" viewBox="0 0 60 45" fill="none" xmlns="http://www.w3.org/2000/svg">
<path d="M2.12627 20.6894C1.60547 19.5675 1.07042 18.5919 0.695433 17.5515C0.0825708 15.806 0.566269 14.2008 1.74682 12.801C2.02414 12.4751 2.09172 12.2013 2.02728 11.7966C1.68897 9.67152 1.7637 7.529 2.16685 5.41786C2.68445 2.67435 6.16564 0.471124 8.90154 1.03236C10.2612 1.31086 11.1633 2.11597 11.6156 3.38794C12.1778 4.99696 13.0666 6.38983 14.235 7.60744C14.373 7.74875 14.5925 7.88448 14.7838 7.89831C16.5119 8.03316 17.8132 8.87019 18.8078 10.202C19.0594 10.5401 19.3046 10.6472 19.7586 10.5784C21.9893 10.2159 23.7368 11.0439 25.0732 12.7723C25.2425 12.9922 25.4435 13.1938 25.628 13.3912C25.6339 13.4015 25.6611 13.3997 25.6776 13.4039C29.2127 11.9292 32.3649 12.7474 34.7639 15.7544C35.2832 15.5789 35.825 15.418 36.3549 15.2364C38.2282 14.5968 39.8993 14.9994 41.392 16.1679C41.6818 16.4011 41.9242 16.4545 42.2595 16.3024C43.883 15.5722 45.4901 15.473 47.1189 16.2177C47.2753 16.2931 47.5136 16.266 47.6902 16.2055C49.2462 15.7491 50.7203 15.0776 51.928 13.9936C54.1089 12.0301 56.5132 12.9209 57.8266 14.4139C59.5341 16.3699 60.1282 18.5959 58.8687 21.1048C58.0198 22.8103 57.1364 24.4805 55.8877 25.9335C55.7847 26.0482 55.7429 26.2933 55.7678 26.4585C56.1723 28.9182 55.3074 30.8402 53.1338 32.2056C52.5639 32.5623 51.9807 32.8713 51.346 33.2378C51.3493 33.5121 51.3884 33.8486 51.3838 34.1828C51.3004 36.2613 50.204 37.7092 48.3357 38.553C45.3498 39.904 42.2526 40.8911 38.951 41.0846C38.4083 41.1217 37.8614 41.0784 37.314 41.132C37.13 41.1553 36.8762 41.3019 36.7865 41.4642C35.6626 43.6462 33.9337 44.6581 31.4835 44.5673C25.0717 44.3328 19.0322 42.7646 13.35 39.8852C11.3082 38.8404 10.2961 37.063 10.5207 34.7649C10.5478 34.4453 10.4535 34.3064 10.1904 34.1683C7.35321 32.6987 5.08721 30.5817 3.13027 28.1205C2.45449 27.2676 1.76078 26.3836 1.34486 25.3945C0.65197 23.6814 1.03034 22.0403 2.12627 20.6894ZM26.8369 14.9721C26.8006 15.0069 26.6207 15.1107 26.4814 15.2603C24.9775 16.8329 23.4285 18.3764 21.9877 20.0093C18.2211 24.2833 15.0346 28.9269 12.7376 34.1341C11.9867 35.8383 12.4763 37.1992 14.1364 38.0225C17.4069 39.6562 20.79 41.0454 24.4178 41.6856C26.9297 42.1276 29.4801 42.3677 32.0293 42.581C33.8236 42.7329 34.9798 41.7062 35.1613 39.944C35.3313 38.3818 35.4893 36.7989 35.5388 35.2234C35.7208 29.1379 34.7505 23.2066 33.2177 17.3515C32.966 16.3781 32.4857 15.6195 31.5106 15.2985C30.0644 14.8214 28.6224 14.107 27.0167 14.8683C27.0062 14.8744 26.985 14.8866 26.8369 14.9721ZM24.2064 14.7644C23.779 14.2929 23.3742 13.8361 22.9588 13.3853C21.858 12.2115 20.5958 12.0287 19.1379 12.8014C17.9715 13.4195 16.7632 13.9652 15.6267 14.6351C11.8093 16.8667 7.99791 19.1087 4.22835 21.4232C2.82419 22.2891 2.54657 23.9825 3.49147 25.3015C5.0128 27.448 6.73235 29.4247 8.87732 30.9901C9.63585 31.5466 10.467 32.0335 11.295 32.5637C14.502 25.7814 18.9777 20.0483 24.2064 14.7644ZM37.2568 39.1762C38.0663 39.1369 38.8124 39.1344 39.5497 39.0678C42.4327 38.7845 45.1454 37.8398 47.7808 36.6635C48.4514 36.3592 48.915 35.843 49.218 35.1708C49.7206 34.0381 49.3167 33.0697 48.8147 32.1026C46.3198 27.3416 43.624 22.6966 40.659 18.2208C40.1741 17.4787 39.515 16.9477 38.5946 16.8437C37.4166 16.709 36.4282 17.2934 35.328 17.6109C37.1098 24.7035 37.9933 31.8037 37.2568 39.1762ZM3.75619 19.2373C8.29431 16.6172 12.7795 14.0277 17.2753 11.432C16.588 10.4615 15.7416 9.67948 14.3769 9.83204C10.5846 10.226 7.09875 11.4928 3.86409 13.5122C3.01461 14.0441 2.38132 14.755 2.39754 15.8092C2.41701 17.1377 2.9438 18.2699 3.75619 19.2373ZM50.7488 31.3727C51.1402 31.1468 51.5601 30.9458 51.9336 30.6887C53.9098 29.2991 54.6571 28.0527 53.277 25.6867C51.6397 22.8752 49.5604 20.4708 46.9835 18.4505C45.7176 17.4549 44.437 17.3379 43.0756 18.0824C45.6054 22.4642 48.1353 26.846 50.7488 31.3727ZM3.8896 11.26C6.53557 9.75998 9.21518 8.80681 12.071 8.20769C11.9408 8.00662 11.818 7.84274 11.7223 7.677C11.069 6.52107 10.3523 5.40178 9.81077 4.19513C9.25132 2.95741 8.68185 2.5818 7.32685 2.92214C7.0311 2.9962 6.74133 3.08063 6.46491 3.2126C5.08602 3.82915 4.09308 4.74772 3.99069 6.35375C3.94433 7.25064 3.82715 8.14699 3.80793 9.04204C3.80019 9.73709 3.85869 10.4492 3.8896 11.26ZM54.7004 24.2434C54.8292 24.1 54.9607 24.0102 55.0352 23.8705C55.8515 22.3772 56.7114 20.8862 57.4329 19.3509C57.6537 18.8782 57.586 18.1991 57.4709 17.6578C57.2615 16.6599 56.6488 15.8674 55.8635 15.2158C55.0273 14.5246 54.3019 14.6119 53.4143 15.2487C52.3799 15.9978 51.2798 16.633 50.187 17.3053C49.9073 17.4806 49.5858 17.5833 49.24 17.7416C51.4466 19.6581 53.2605 21.7737 54.7004 24.2434Z" fill="white"/>
</svg>
