<svg width="35" height="61" viewBox="0 0 35 61" fill="none" xmlns="http://www.w3.org/2000/svg">
<path d="M14.6635 7.13673C14.2492 5.09205 13.434 4.38377 11.416 4.08976C7.96816 3.5953 4.53364 3.04738 1.08575 2.51282C0.32401 2.39254 -0.0902709 1.88471 0.0166403 1.25661C0.123551 0.628508 0.64474 0.267684 1.43321 0.374595C3.89217 0.735421 6.35113 1.10961 8.79672 1.4838C9.85247 1.64417 10.8949 1.83126 11.9506 1.9649C14.169 2.24554 16.1201 3.94276 16.6681 6.09434C16.7215 6.30817 16.7883 6.52199 16.7883 6.56208C18.4722 6.81599 20.1293 6.84272 21.6394 7.33718C27.2255 9.15468 30.6066 13.0035 31.6089 18.8435C31.7024 19.3647 31.8361 19.7122 32.384 19.9928C34.696 21.2223 34.7494 24.1356 32.5176 25.4854C32.1301 25.7125 31.943 25.9665 31.9029 26.4075C31.6757 28.9733 31.4352 31.5392 31.1946 34.1051C30.9006 37.2189 30.6066 40.3327 30.3126 43.4598C30.072 45.9989 29.8315 48.5381 29.6043 51.0906C29.3638 53.6832 29.1366 56.2624 28.8827 58.855C28.7757 59.8974 28.455 60.1513 27.426 60.1513C21.0514 60.1513 14.6635 60.1513 8.28889 60.1513C7.28659 60.1513 6.9525 59.8974 6.85896 58.9085C6.64513 56.8103 6.4714 54.7122 6.27094 52.6141C5.97694 49.5136 5.68293 46.4266 5.40229 43.3262C5.16174 40.7336 4.92119 38.1543 4.68063 35.5617C4.39999 32.5148 4.10599 29.4544 3.83871 26.4075C3.79862 25.9798 3.61153 25.7259 3.23734 25.4854C1.04566 24.1089 1.11248 21.2757 3.3977 20.0195C3.89217 19.7522 4.05253 19.4315 4.14608 18.9103C5.09492 13.1104 8.46262 9.34177 13.9285 7.36391C14.169 7.27037 14.4229 7.21691 14.6635 7.13673ZM26.7979 57.9864C27.8002 47.3086 28.7891 36.6843 29.7914 26.0333C21.8132 26.0333 13.9151 26.0333 5.96357 26.0333C6.96587 36.711 7.95479 47.3353 8.95708 57.9864C14.9174 57.9864 20.8242 57.9864 26.7979 57.9864ZM29.4974 19.5652C29.0564 12.7496 22.8021 8.43303 17.2694 9.0344C17.9777 12.5491 18.6994 16.0504 19.4076 19.5919C22.615 19.5919 25.7689 19.5919 28.9227 19.5919C29.1098 19.5919 29.2836 19.5785 29.4974 19.5652ZM15.1045 9.28831C9.87919 10.3708 6.33776 15.2352 6.29767 19.5518C9.90592 19.5518 13.5275 19.5518 17.1892 19.5518C16.4943 16.1306 15.8128 12.7362 15.1045 9.28831ZM17.951 23.855C22.2141 23.855 26.4905 23.855 30.7536 23.855C31.7559 23.855 32.1702 23.414 32.0098 22.5186C31.9029 21.9306 31.5554 21.7167 30.6868 21.7167C22.615 21.7167 14.5566 21.7167 6.48476 21.7167C5.92348 21.7167 5.37556 21.7034 4.81427 21.7167C4.26635 21.7301 3.87881 21.9573 3.78526 22.5453C3.65162 23.3872 4.05253 23.8416 5.01473 23.8416C9.33127 23.8683 13.6345 23.855 17.951 23.855Z" fill="white"/>
<path d="M10.9483 36.9249C10.9483 33.0627 14.316 29.7217 18.1915 29.7351C22.0136 29.7485 25.3546 33.1028 25.3546 36.9516C25.3546 40.787 22.0002 44.1414 18.1648 44.1414C14.2892 44.1414 10.9483 40.8004 10.9483 36.9249ZM18.1648 31.8733C15.2648 31.8599 13.0999 34.0115 13.0865 36.8981C13.0598 39.8115 15.2381 42.0031 18.1648 42.0031C21.0514 42.0031 23.2163 39.8248 23.2163 36.9382C23.2163 34.0383 21.0647 31.8867 18.1648 31.8733Z" fill="white"/>
</svg>
