<svg width="49" height="53" viewBox="0 0 49 53" fill="none" xmlns="http://www.w3.org/2000/svg">
<path d="M15.3999 42.1367C11.7702 42.1367 8.14052 42.1367 4.51083 42.1367C2.15679 42.1367 0.03947 40.0457 0.026319 37.7048C0.0131679 34.4433 1.52588e-05 31.1819 1.52588e-05 27.9335C1.52588e-05 25.5927 2.11734 23.5016 4.53713 23.4359C4.95796 23.4227 5.3788 23.3833 5.78648 23.449C6.78596 23.6069 7.312 23.1992 7.73284 22.2917C8.4956 20.5953 9.66604 19.1749 11.1784 18.0571C13.3352 16.479 15.7418 15.874 18.3984 16.045C20.3579 16.1634 22.2122 16.7552 24.1322 17.0576C27.2096 17.5311 30.1949 17.1628 33.167 16.4658C35.6394 15.8872 38.0986 15.7688 40.5184 16.6631C43.7141 17.8467 45.7131 20.2533 47.0545 23.2912C48.5011 26.5921 48.5274 30.0246 48.1592 33.5359C47.8041 36.8763 46.8967 40.0588 45.358 43.0441C43.8325 45.99 41.8072 48.5676 39.2296 50.6586C36.8098 52.6312 34.1007 52.7759 31.2469 51.7501C31.1023 51.6975 30.9576 51.6449 30.8261 51.5792C28.1827 50.3035 25.6051 50.698 22.9618 51.737C19.6477 53.0389 16.6756 52.3682 14.1111 49.8301C12.9275 48.6596 11.8097 47.4234 10.797 46.1083C10.4683 45.6875 10.4946 45.4376 10.968 45.122C12.1121 44.3724 12.099 44.3461 12.9538 45.4376C13.9796 46.7264 15.0843 47.9495 16.3599 48.9884C18.109 50.4087 20.0948 50.5797 22.1727 49.8038C23.159 49.4355 24.1454 49.1068 25.158 48.8306C26.552 48.4492 27.9066 48.515 29.3006 48.87C30.642 49.212 31.8782 49.8432 33.2327 50.1194C34.9687 50.4745 36.5863 50.1588 37.9145 49.0147C41.1891 46.2004 43.5695 42.7679 44.924 38.6517C46.1208 35.0088 46.5942 31.2476 46.055 27.4601C45.6342 24.5011 44.5032 21.792 42.0571 19.872C40.1502 18.3727 37.9145 17.9519 35.5605 18.2018C33.7193 18.399 31.9308 18.9382 30.0896 19.2144C27.3542 19.6221 24.6846 19.3328 22.0149 18.8462C20.5551 18.5831 19.148 18.1097 17.6356 18.1229C13.9007 18.1755 11.2179 19.8719 9.57399 23.2123C8.66656 25.0798 8.10107 27.0393 8.07477 29.1435C8.06162 29.7089 8.25888 29.9457 8.81123 29.9457C10.3367 29.9457 11.8623 29.9588 13.4009 29.9588C14.5319 29.9588 15.6629 29.9588 16.8071 29.9588C18.2668 29.9588 19.7266 29.972 21.1995 29.972C23.0538 29.972 24.9081 29.9588 26.7624 29.972C27.42 29.9851 27.7882 30.498 27.8014 31.3134C27.8145 33.2992 27.8014 35.2981 27.8014 37.2839C27.8014 38.4675 27.8014 39.6511 27.7882 40.8216C27.7751 41.7553 27.3937 42.1235 26.4599 42.1367C22.7514 42.1367 19.0691 42.1235 15.3999 42.1367C15.3999 42.1235 15.3999 42.1367 15.3999 42.1367ZM25.6051 36.0214C25.6183 34.9694 25.5788 33.9173 25.6314 32.8783C25.6577 32.2208 25.4605 32.0235 24.7898 32.0235C18.1485 32.0498 11.494 32.0235 4.85276 32.0367C4.1163 32.0367 3.40614 31.9578 2.76174 31.6158C2.262 31.3528 2.1831 31.5369 2.1831 32.0104C2.19625 33.9567 2.18309 35.9031 2.19624 37.8494C2.20939 39.0725 2.94586 39.8747 4.15576 39.9799C4.86591 40.0457 5.60237 39.9931 6.31252 40.0062C6.74651 40.0194 6.87802 39.7826 6.87802 39.3881C6.86487 38.6911 6.86487 37.9941 6.89117 37.2839C6.91748 36.4554 7.32516 36.0083 8.00901 36.0214C8.65342 36.0477 9.02164 36.4949 9.03479 37.2839C9.03479 37.9678 9.04795 38.6385 9.02165 39.3224C8.99535 39.8353 9.21891 40.0194 9.71865 40.0062C10.6787 39.9931 11.6387 39.9799 12.5987 40.0062C13.0985 40.0194 13.322 39.8484 13.3089 39.3224C13.2826 38.6517 13.2957 37.9678 13.3089 37.2839C13.322 36.4686 13.7297 36.0083 14.4004 36.0083C15.0448 36.0083 15.4262 36.4554 15.4394 37.2577C15.4525 37.981 15.4525 38.7043 15.4394 39.4276C15.4394 39.809 15.584 39.9931 15.9786 39.9931C17.0306 39.9799 18.0827 39.9799 19.1217 39.9931C19.5293 39.9931 19.7135 39.8221 19.7135 39.4013C19.7003 38.7174 19.7135 38.0467 19.7135 37.3629C19.7135 36.5212 20.0685 36.0346 20.7261 36.0083C21.4099 35.982 21.8308 36.4554 21.8702 37.3234C21.8965 37.9941 21.8834 38.678 21.8702 39.3618C21.8571 39.809 22.0543 40.0062 22.4883 39.9931C23.3037 39.9799 24.1059 39.9668 24.9213 39.9931C25.4473 40.0194 25.6709 39.8484 25.6577 39.2829C25.5788 38.2045 25.6051 37.113 25.6051 36.0214ZM5.08948 25.5927C4.7607 25.5927 4.43192 25.5664 4.1163 25.5927C3.06421 25.6979 2.27515 26.4606 2.19624 27.4207C2.09104 28.6305 2.66969 29.5248 3.76122 29.801C4.22151 29.9194 4.7081 29.972 5.18154 29.972C5.69443 29.972 5.918 29.7878 5.93115 29.2355C5.95745 28.4333 6.0232 27.6311 6.14156 26.8289C6.33883 25.5664 6.36513 25.5664 5.08948 25.5927Z" fill="white"/>
<path d="M26.4863 9.23269C26.6309 8.7198 26.7493 8.35157 26.8413 7.97019C27.5646 5.05065 29.2743 3.06485 32.1807 2.10482C34.298 1.39466 36.4416 0.789708 38.6378 0.382025C39.4795 0.224212 40.1634 0.802864 39.9924 1.57878C39.3874 4.3405 38.6115 7.04961 37.2044 9.52201C35.8498 11.9024 33.6273 13.0202 31.0628 13.612C29.9318 13.875 28.7745 13.9276 27.6172 14.0065C26.8808 14.0591 26.4336 13.7435 26.1443 13.0728C25.2895 11.0607 24.1454 9.24585 22.4094 7.85183C22.0543 7.56251 21.673 7.29948 21.2653 7.08907C20.5814 6.73399 20.3316 6.16849 20.5946 5.603C20.8708 5.0112 21.502 4.82709 22.2253 5.20847C23.764 6.02383 24.9739 7.20743 26.0128 8.57514C26.1443 8.74611 26.2627 8.93022 26.4863 9.23269ZM37.5331 2.78868C35.6131 3.22266 33.8508 3.69609 32.1544 4.4194C30.8656 4.97175 29.9187 5.86602 29.3532 7.12853C28.7482 8.48308 28.4984 9.91654 28.3932 11.3895C28.3669 11.7182 28.4195 11.8761 28.814 11.8103C29.3269 11.7051 29.8661 11.7051 30.3658 11.5999C32.3779 11.1659 34.2191 10.4163 35.3369 8.52253C36.3759 6.77344 36.9545 4.85339 37.5331 2.78868Z" fill="white"/>
<path d="M43.1356 28.578C43.1487 29.2619 42.8989 29.6696 42.3071 29.7616C41.689 29.8537 41.2813 29.5512 41.0972 28.9857C40.8736 28.3019 40.6895 27.6048 40.4001 26.9341C39.7557 25.4349 38.7694 24.2645 37.2307 23.6069C36.4811 23.2913 36.2313 22.7653 36.4943 22.1735C36.7705 21.5422 37.3886 21.3449 38.1513 21.7C40.8078 22.9494 42.2018 25.1982 42.9909 27.9073C43.0567 28.1572 43.0961 28.4202 43.1356 28.578Z" fill="white"/>
</svg>
