<svg width="72" height="46" viewBox="0 0 72 46" fill="none" xmlns="http://www.w3.org/2000/svg">
<path d="M35.6936 40.7549C26.1691 40.7549 16.6447 40.7549 7.13677 40.7549C6.8049 40.7549 6.47304 40.7715 6.14118 40.7217C5.37789 40.5889 5.04603 40.1243 5.04603 39.3278C5.06262 35.611 5.70976 32.0103 7.12017 28.5921C11.1689 18.7523 18.304 12.3971 28.6249 9.67586C29.2555 9.50992 29.9026 9.3274 30.5663 9.27762C31.313 9.21125 31.2798 8.99554 30.948 8.43137C29.4712 5.84283 30.2676 2.72332 32.74 1.19675C34.8474 -0.130706 37.5023 0.134785 39.3275 1.84388C41.103 3.5032 41.5012 6.12492 40.3397 8.28203C39.9083 9.0785 39.9083 9.0951 40.8375 9.26103C49.217 10.854 55.9539 15.0686 60.9152 22.0212C63.9684 26.3022 65.7272 31.0976 66.2914 36.3411C66.391 37.2703 66.4408 38.2161 66.4408 39.1453C66.4408 40.3068 66.0425 40.7217 64.8478 40.7383C62.8566 40.7549 60.882 40.7549 58.8909 40.7549C51.1418 40.7549 43.4094 40.7549 35.6936 40.7549ZM35.6936 38.5148C44.7203 38.5148 53.747 38.5148 62.7571 38.5148C64.2836 38.5148 64.3168 38.4816 64.1509 36.9218C63.4042 30.3178 60.8323 24.5267 56.1198 19.8143C49.217 12.9115 40.8541 10.0409 31.23 11.5509C22.5186 12.9281 15.8482 17.624 11.2353 25.1573C8.91224 28.9405 7.66775 33.0722 7.3027 37.486C7.23633 38.2825 7.50182 38.5148 8.29829 38.5148C17.4245 38.5148 26.5674 38.5148 35.6936 38.5148ZM35.76 9.06191C37.552 9.06191 38.9791 7.65149 38.9791 5.87602C38.9625 4.15033 37.4857 2.69013 35.7434 2.69013C33.9679 2.69013 32.5077 4.15033 32.5243 5.87602C32.5077 7.60171 34.0177 9.06191 35.76 9.06191Z" fill="white"/>
<path d="M35.7268 42.9948C47.0765 42.9948 58.4097 42.9948 69.7428 42.9948C70.0415 42.9948 70.3568 43.0114 70.6388 43.0944C71.1366 43.2603 71.3689 43.6917 71.3358 44.2061C71.3026 44.7869 70.9707 45.1851 70.3734 45.2847C69.3944 45.4672 68.3988 45.3676 67.4032 45.3676C47.5909 45.3842 27.7787 45.3676 7.96644 45.3676C5.89229 45.3676 3.83474 45.3676 1.7606 45.3676C1.59466 45.3676 1.42873 45.3677 1.2628 45.3511C0.416549 45.2515 -0.0314664 44.8035 0.00171995 44.1066C0.0349063 43.4263 0.532701 42.9948 1.37895 42.9782C3.28717 42.9616 5.17879 42.9616 7.087 42.9616C16.6447 42.9948 26.1857 42.9948 35.7268 42.9948Z" fill="white"/>
<path d="M12.6125 31.496C11.7331 31.5126 11.2353 30.6829 11.6003 29.8035C12.6623 27.2315 14.1059 24.8919 15.8648 22.7514C18.2044 19.8973 21.0087 17.6075 24.2941 15.9482C25.2233 15.4836 25.7875 15.5831 26.1028 16.1805C26.4678 16.8774 26.2355 17.4581 25.3561 17.8896C22.7344 19.2004 20.4943 21.0091 18.5031 23.133C16.4621 25.3067 14.9356 27.8123 13.7243 30.5336C13.3758 31.2802 13.1103 31.496 12.6125 31.496Z" fill="white"/>
</svg>
