<svg width="12" height="15" viewBox="0 0 12 15" fill="none" xmlns="http://www.w3.org/2000/svg">
<path d="M11.5594 2.87053L8.9375 0.413005C8.65625 0.149385 8.275 0 7.87813 0H1.5C0.671875 0.00292912 0 0.632689 0 1.4089V13.594C0 14.3702 0.671875 15 1.5 15H10.5C11.3281 15 12 14.3702 12 13.594V3.86643C12 3.49443 11.8406 3.13415 11.5594 2.87053ZM10.8531 3.53544C10.9187 3.59695 10.9625 3.67018 10.9844 3.7522H8V0.954892C8.0875 0.975395 8.16562 1.0164 8.23125 1.07791L10.8531 3.53544ZM10.5 14.0627H1.5C1.225 14.0627 1 13.8518 1 13.594V1.4089C1 1.15114 1.225 0.940246 1.5 0.940246H7V3.98653C7 4.3761 7.33437 4.68951 7.75 4.68951H11V13.594C11 13.8518 10.775 14.0627 10.5 14.0627ZM9.8125 9.04804C9.39062 8.65847 8.09375 8.77856 7.50938 8.85179C6.84688 8.47686 6.40937 7.96134 6.1 7.19391C6.23438 6.66667 6.475 5.81137 6.3 5.29291C6.1625 4.46983 5.05937 4.56942 4.90625 5.09373C4.75 5.62976 4.89687 6.39426 5.16875 7.37258C4.79688 8.20445 4.24062 9.33216 3.85313 9.96778C3.20312 10.2812 2.1625 10.826 2.01562 11.5026C1.90625 11.9947 2.73125 12.6567 3.675 11.6901C3.95937 11.4001 4.27812 10.9637 4.65312 10.3574C5.4875 10.0996 6.40625 9.77739 7.21562 9.65436C7.9 10.0059 8.70312 10.2373 9.23438 10.2373C10.1 10.2402 10.1375 9.35267 9.8125 9.04804ZM2.65 11.655C2.83438 11.1892 3.54375 10.6473 3.75938 10.4599C3.06875 11.4938 2.65 11.6755 2.65 11.655ZM5.625 5.14353C5.89687 5.14353 5.86875 6.24195 5.69063 6.53779C5.52813 6.06034 5.53438 5.14353 5.625 5.14353ZM4.7375 9.80961C5.09063 9.22964 5.39375 8.54423 5.6375 7.94376C5.94062 8.46222 6.32812 8.87229 6.73438 9.15934C5.975 9.29701 5.31563 9.60164 4.7375 9.80961ZM9.53125 9.63679C9.53125 9.63679 9.35 9.84183 8.17188 9.37024C9.45312 9.28237 9.6625 9.5577 9.53125 9.63679Z" fill="#7E7E7E"/>
</svg>
