<svg width="66" height="65" viewBox="0 0 66 65" fill="none" xmlns="http://www.w3.org/2000/svg">
<path d="M29.9465 54.8129C29.5244 53.2944 29.0802 51.7536 28.6359 50.2574C28.1471 48.5603 27.6362 46.8185 27.1697 45.0767C26.5032 42.665 25.8368 40.2086 25.1926 37.8415C24.3928 34.8715 23.5487 31.7899 22.7045 28.7752C21.5938 24.8003 18.8392 22.7906 14.7294 22.9245C14.4184 22.9245 13.9519 22.9245 13.6409 22.6119C13.3299 22.2993 13.2633 21.875 13.2633 21.473C13.241 20.3788 13.1744 19.0837 12.6857 17.9225C11.5527 15.1311 9.57561 12.9204 6.44333 10.9776C5.73246 10.531 5.33259 10.7319 5.11044 10.9329C4.77722 11.2009 4.75501 11.5135 5.0438 12.2728C5.35481 13.1437 5.68803 13.9699 6.02125 14.7515C6.59883 16.1807 7.17641 17.6322 7.73178 19.4409L8.44266 21.674L6.97648 19.8652C6.17675 18.8827 5.28816 17.9225 4.42179 17.0069C3.51098 16.0467 2.57796 15.0418 1.7338 13.9922C1.40058 13.568 1.15622 13.3893 0.867428 13.3893C0.778569 13.3893 0.711925 13.4116 0.623066 13.434C0.31206 13.5233 -0.0211616 13.7466 0.00105314 14.5952C0.134342 20.2002 2.00038 23.8848 5.86575 26.2295C6.08789 26.3635 6.3989 26.5868 6.48776 26.9664C6.5544 27.3237 6.37668 27.6587 6.19897 27.9266C5.6436 28.7082 5.31038 29.3781 5.15487 30.0704C4.42179 32.9511 5.13266 35.4298 7.28749 37.7075C11.9304 42.5533 16.6177 47.4884 21.1717 52.2449L25.8368 57.1576C26.9031 58.2742 27.9916 58.4975 29.0802 57.8722C30.0132 57.2916 30.3242 56.1974 29.9465 54.8129ZM8.22051 15.8904L7.73178 14.4612L8.90916 15.3991C10.9751 17.0292 11.1529 18.3691 11.0196 21.0041L10.8863 23.3042L10.1532 21.1158C9.7089 19.8206 9.4201 19.0837 9.15353 18.3914C8.86474 17.6991 8.59816 17.0292 8.22051 15.8904ZM2.37803 18.9273L2.04481 17.2525L3.15555 18.57C3.99971 19.5749 4.75501 20.4235 5.48809 21.2721C6.19897 22.0983 6.88762 22.8799 7.64292 23.7731L8.3538 24.5994L7.26527 24.51C5.22152 24.2867 2.9334 21.6964 2.37803 18.9273ZM28.0138 56.1974C27.925 56.2197 27.8139 56.2197 27.7473 56.2197C27.3252 56.2197 27.0808 55.9294 26.9697 55.7731C26.9475 55.7508 26.9253 55.7285 26.9031 55.7061C26.1922 54.9692 25.5036 54.21 24.7927 53.473C23.3932 51.9769 21.927 50.4361 20.483 48.9399C20.1943 48.6273 19.861 48.2253 19.9277 47.734C20.0165 47.2651 20.4608 46.9971 20.8607 46.7961C21.2606 46.5952 21.6826 46.3495 22.238 45.9922C23.06 45.434 22.7712 44.9874 22.6601 44.8087C22.4602 44.5184 22.1269 44.1611 21.4161 44.5854C21.0384 44.8087 20.6608 45.0097 20.2831 45.233C19.8832 45.4563 19.4834 45.6796 19.1057 45.9029C18.4171 46.3049 17.7951 46.2155 17.2841 45.6349C16.7954 45.0767 16.1956 44.4291 15.5292 43.8708C15.2626 43.6475 14.8849 43.2902 14.9516 42.8213C15.0182 42.3077 15.5514 42.0174 15.8402 41.8834L15.9068 41.861C16.2845 41.6824 16.6177 41.5038 16.9287 41.2804C17.5063 40.8338 17.373 40.4319 17.2397 40.1862C16.9953 39.7396 16.6399 39.628 16.1956 39.8066C15.4625 40.1192 14.7739 40.5212 14.1963 40.8562C13.5076 41.2581 12.9078 41.1688 12.3747 40.5882C11.3306 39.4493 10.442 38.5338 9.62004 37.7075C9.50896 37.5959 9.17574 37.2609 9.24239 36.8143C9.28682 36.4123 9.62004 36.189 9.8644 36.055L9.95326 36.0104C10.3309 35.7871 10.7086 35.5861 11.0418 35.3405C11.4416 35.0502 11.5083 34.6929 11.2417 34.2463C11.0862 33.9783 10.8196 33.6656 10.1976 33.9559C9.73111 34.1793 9.24239 34.4472 8.70923 34.8045C8.55373 34.8938 8.10943 35.1841 7.64292 35.0278C7.22084 34.8715 7.02091 34.4472 6.90984 34.1346C5.97682 31.5219 6.93205 28.7082 9.19796 27.279C10.4198 26.4975 11.5749 25.8499 12.6857 25.2693C14.3296 24.4207 16.1956 24.3537 17.8173 25.0906C19.439 25.8275 20.6163 27.3014 21.0828 29.1102C21.1051 29.2218 21.1273 29.3335 21.1495 29.4451C21.1939 29.6684 21.2383 29.8471 21.305 30.0481C21.6382 30.919 21.3494 31.5889 20.4608 32.0355C19.6611 32.4375 18.8614 32.9064 17.9728 33.42C17.062 33.9559 17.3508 34.4696 17.4618 34.6705C17.5729 34.8715 17.8617 35.3628 18.7947 34.8715C19.3723 34.5589 20.061 34.2016 20.683 33.7773C21.1495 33.487 21.5271 33.3977 21.8826 33.5317C22.3491 33.7103 22.5268 34.2239 22.6157 34.5812C23.0377 36.2337 23.6153 38.4221 24.2596 40.5659C24.9038 42.6873 25.4591 44.8534 26.0145 46.9525C26.3033 48.0467 26.5921 49.1632 26.8809 50.2574C27.1475 51.24 27.4363 52.2225 27.7028 53.1827C27.9028 53.8527 28.0805 54.5226 28.2804 55.1702C28.3249 55.3488 28.3248 55.5051 28.3248 55.6391C28.3248 55.6838 28.3248 55.7285 28.3248 55.7508L28.3471 56.1304L28.0138 56.1974Z" fill="white"/>
<path d="M47.6739 19.1284C52.3834 16.5827 53.272 15.5108 54.0273 11.4243C54.1828 10.5311 54.1606 9.63784 54.1162 8.74461C54.0495 7.47176 53.894 6.8465 53.6052 6.62319C53.3164 6.42221 52.7388 6.44454 51.6948 6.73484C51.3837 6.82417 50.9395 6.89116 50.5618 6.66785C50.1842 6.44454 50.0509 6.02026 49.9398 5.6183C49.7176 4.70274 49.3622 3.74252 48.8068 2.60365C48.1626 1.30846 47.6739 0.482225 47.2074 0.370571C46.7409 0.258918 45.9189 0.794856 44.7638 1.71042C39.9654 5.48432 38.6325 10.0175 40.654 15.5778C40.7873 15.9575 40.9428 16.2924 41.1428 16.7614C41.2538 16.9847 41.3649 17.2526 41.476 17.5429C41.5426 17.6993 41.5204 17.8779 41.4093 18.0119C41.2983 18.1459 41.1205 18.1905 40.9428 18.1459C40.3652 17.9672 39.8321 17.9002 39.3434 17.9002C38.788 17.9002 38.2548 17.9672 37.7217 18.0565L37.4773 18.1012C34.9671 18.4585 32.8344 19.6867 31.5016 21.6071C30.1687 23.5053 29.7244 25.9393 30.2353 28.418C31.3683 33.8667 34.3673 38.4445 37.3218 42.6874C37.5662 43.0224 37.8994 43.268 38.7213 42.8214C40.4541 41.8611 41.8536 41.0126 43.0976 40.097C45.8967 38.1096 49.0512 35.8542 51.1838 32.6609C53.8274 28.7307 53.1165 24.1082 49.4066 21.1829C49.029 20.8926 48.6513 20.6246 48.2293 20.3343C48.0293 20.2003 47.8294 20.0663 47.6295 19.9323C47.4962 19.843 47.4295 19.6867 47.4295 19.5304C47.4295 19.3741 47.5406 19.1954 47.6739 19.1284ZM45.719 3.09493C45.9634 2.91628 46.3188 2.69297 46.7187 2.82696C47.0963 2.93861 47.274 3.2959 47.3851 3.56387C47.4517 3.74252 47.5406 3.92116 47.6072 4.07748C47.7183 4.34545 47.8516 4.61342 47.9405 4.90372C48.8068 7.18146 48.7624 7.40477 46.8742 8.90093C45.1858 10.2631 44.164 12.0719 43.7863 14.3943C43.7419 14.6623 43.6974 14.9302 43.6308 15.2429C43.6086 15.3992 43.5642 15.5778 43.5197 15.8011C43.4753 15.9798 43.342 16.1361 43.1421 16.1584C43.1199 16.1584 43.0976 16.1584 43.0754 16.1584C42.8977 16.1584 42.7644 16.0691 42.6756 15.9128C40.3208 11.1563 41.4982 6.13191 45.719 3.09493ZM48.0071 22.2547C51.2505 24.5548 51.9613 28.418 49.7621 31.6783C48.2959 33.8444 46.3632 35.4969 43.9196 37.3057C42.9199 38.0426 41.8758 38.7348 40.854 39.4048C40.3652 39.7174 39.8987 40.0524 39.41 40.365C39.1656 40.5436 38.8324 40.7223 38.477 40.7223C38.4103 40.7223 38.3437 40.7223 38.2771 40.6999C37.966 40.633 37.6995 40.432 37.4773 40.097C35.167 36.4794 32.9899 32.9065 31.9903 28.82C31.3461 26.2073 31.7459 23.8625 33.101 22.1877C34.5005 20.4683 36.8109 19.575 39.6321 19.6867C42.9644 19.7537 45.6968 20.6023 48.0071 22.2547ZM46.7409 17.5653C46.5631 17.6099 46.3632 17.6546 46.1633 17.6546C45.9634 17.6546 45.7412 17.6099 45.5635 17.4536C45.2303 17.1633 45.208 16.6944 45.2525 16.3147C45.6079 11.6476 47.6072 9.95047 50.4952 8.8116C51.1172 8.56597 51.6725 8.36499 52.0724 8.63296C52.4723 8.90093 52.4501 9.48153 52.4501 10.1961C52.4278 11.9379 51.8503 13.5457 50.8506 14.8186C49.8731 16.1138 48.4514 17.074 46.7409 17.5653Z" fill="white"/>
<path d="M27.9472 10.8215C27.2363 10.0846 26.2367 9.61563 25.1037 9.61563C24.0818 9.61563 23.06 10.0622 22.2602 10.8662C21.4605 11.6701 21.0162 12.7196 21.0162 13.7245C21.0384 15.9352 22.8822 17.744 25.1481 17.744C26.2145 17.744 27.2141 17.3421 27.9694 16.5828C28.7025 15.8459 29.1246 14.8187 29.1246 13.7468C29.1246 12.608 28.6803 11.5807 27.9472 10.8215ZM25.1926 16.0469C25.1704 16.0469 25.1704 16.0469 25.1481 16.0469C24.4817 16.0469 23.8597 15.8013 23.3932 15.3323C22.9489 14.8857 22.7045 14.3051 22.7045 13.6798C22.7045 12.474 23.8597 11.3128 25.0593 11.2904C25.6813 11.2904 26.2589 11.5137 26.7032 11.9604C27.1697 12.4293 27.4363 13.0769 27.4363 13.7692C27.4363 15.0643 26.4588 16.0469 25.1926 16.0469Z" fill="white"/>
<path d="M20.2386 59.3462C19.7944 57.5374 18.0616 56.2422 16.24 56.2422C15.9512 56.2422 15.6624 56.2645 15.3958 56.3315C14.4184 56.5548 13.5076 57.2248 12.93 58.1627C12.3302 59.1229 12.1303 60.2618 12.3746 61.2666C12.619 62.3162 13.2632 63.2094 14.174 63.7677C15.107 64.326 16.1956 64.5046 17.2841 64.2366C17.8172 64.1027 18.3282 63.8793 18.7503 63.5667C19.1723 63.2541 19.55 62.8521 19.8166 62.4055C20.3497 61.4899 20.5052 60.3957 20.2386 59.3462ZM18.3504 61.5346C18.0172 62.0706 17.484 62.4502 16.8176 62.6065C16.6399 62.6511 16.4399 62.6735 16.2622 62.6735C15.8179 62.6735 15.3736 62.5395 14.996 62.2939C14.485 61.9589 14.1296 61.4453 14.0185 60.8424C13.8852 60.2171 14.0407 59.5248 14.4184 58.9666C14.7738 58.4306 15.307 58.051 15.9068 57.9394C17.0842 57.716 18.3282 58.52 18.617 59.7035C18.7503 60.3734 18.6614 61.021 18.3504 61.5346Z" fill="white"/>
<path d="M64.7348 20.3344C63.9573 19.5528 62.9354 19.1062 61.9357 19.1062H61.9135C59.7142 19.1285 57.8704 21.0043 57.8704 23.2374C57.8704 24.3093 58.2703 25.2918 59.0256 26.0511C59.7809 26.8103 60.825 27.2346 61.9579 27.2346H61.9802C63.0909 27.2346 64.0906 26.788 64.8014 26.0511C65.5345 25.3365 65.9788 24.3316 65.9788 23.2374C66.001 22.2102 65.5345 21.1383 64.7348 20.3344ZM63.624 24.8675C63.1797 25.3142 62.5799 25.5598 61.9357 25.5598C61.9135 25.5598 61.9135 25.5598 61.8913 25.5598C60.5362 25.5375 59.581 24.5772 59.5587 23.2374C59.5587 22.6121 59.8253 21.9645 60.3363 21.4956C60.8028 21.0266 61.4248 20.781 62.0024 20.8257C63.2242 20.8927 64.2683 22.0092 64.2683 23.2821C64.3127 23.885 64.0683 24.4433 63.624 24.8675Z" fill="white"/>
<path d="M37.7217 34.6259C37.5662 34.6929 37.0108 34.8492 36.7665 34.3133C35.167 30.852 33.8119 27.1451 36.2111 23.3042C36.4777 22.8799 36.6998 22.5896 36.9442 22.344C36.9886 22.2993 37.1219 22.1653 37.3663 22.1653C37.4773 22.1653 37.6106 22.1877 37.7883 22.277C38.0549 22.411 38.1882 22.612 38.166 22.9246V22.9693C38.1882 23.2149 38.1216 23.4159 37.9661 23.6168C36.3888 25.6936 36.1667 28.083 37.2552 31.12C37.3663 31.4326 37.4995 31.7453 37.6106 32.0802C37.8106 32.5715 38.0105 33.1074 38.166 33.621C38.3881 34.358 37.8772 34.5589 37.7217 34.6259Z" fill="white"/>
</svg>
