<svg width="64" height="47" viewBox="0 0 64 47" fill="none" xmlns="http://www.w3.org/2000/svg">
<path d="M31.9087 0.355957C41.8882 0.355957 51.8677 0.355957 61.8327 0.355957C63.2625 0.355957 63.7732 0.852016 63.7732 2.26724C63.7732 7.06734 63.7586 11.882 63.7877 16.6821C63.7877 17.6743 63.4668 18.4475 62.7227 19.1187C52.889 28.0331 43.07 36.9768 33.2363 45.9058C32.0108 47.0147 31.5001 47.0001 30.26 45.8621C20.5868 36.9914 10.8991 28.1207 1.21136 19.2646C0.37973 18.5059 -0.0141993 17.6597 0.000390637 16.5216C0.0441606 11.7653 0.0149804 7.00898 0.0149804 2.25265C0.0149804 0.881196 0.525629 0.370547 1.91168 0.370547C11.9058 0.355957 21.8999 0.355957 31.9087 0.355957ZM3.10805 2.07757C12.7812 10.9483 22.2939 19.6585 31.8211 28.3979C41.4505 19.6293 51.0215 10.9191 60.7384 2.07757C41.4505 2.07757 22.396 2.07757 3.10805 2.07757ZM1.8825 3.27395C1.82414 3.28854 1.75119 3.31772 1.69283 3.33231C1.69283 4.23689 1.72201 5.15606 1.67824 6.06064C1.64906 6.64423 1.83873 7.03816 2.27643 7.44668C10.7678 15.2085 19.2446 22.985 27.7213 30.7615C29.0782 32.0016 30.4351 33.2418 31.8065 34.4965C31.9378 34.3944 32.04 34.3214 32.1275 34.2485C42.0049 25.261 51.8677 16.2882 61.7451 7.30078C61.891 7.16947 62.0807 6.95062 62.0807 6.77554C62.1099 5.62294 62.0953 4.47033 62.0953 3.14264C61.716 3.46362 61.4825 3.65329 61.2491 3.87214C51.8823 12.3635 42.5302 20.8695 33.1634 29.3608C32.0837 30.3383 31.471 30.3383 30.4059 29.3608C22.2209 21.8616 14.0359 14.3769 5.85097 6.89226C4.52328 5.6813 3.19559 4.48492 1.8825 3.27395ZM62.0807 14.1873C59.615 16.4341 57.3244 18.5205 55.0338 20.6214C54.8733 20.7673 54.7857 21.0299 54.6836 21.2488C51.8969 27.289 47.374 31.4034 41.0857 33.5773C40.7502 33.694 40.4292 33.8837 40.1666 34.1172C37.876 36.1743 35.5999 38.2607 33.3239 40.3325C32.1421 41.3975 31.5001 41.3975 30.3184 40.3179C25.5912 35.9993 20.8495 31.6806 16.1369 27.362C15.5095 26.793 14.9259 26.4574 13.9922 26.4282C12.8542 26.3991 11.7307 25.9468 10.724 25.6987C17.6543 32.0308 24.7304 38.4796 31.7919 44.9283C31.9087 44.8408 31.9962 44.7824 32.0691 44.7241C41.932 35.7658 51.7948 26.8222 61.6576 17.8493C61.8473 17.6743 62.0515 17.4262 62.0661 17.1928C62.1099 16.2736 62.0807 15.3399 62.0807 14.1873ZM22.1771 28.3103C22.2063 28.2228 22.2501 28.1207 22.2793 28.0331C16.6767 22.9121 11.0888 17.791 5.44245 12.6261C5.34032 12.8742 5.26737 13.0201 5.2236 13.1805C4.36279 16.1277 5.44245 18.6518 8.30208 20.2713C8.8565 20.5922 9.22125 20.9716 9.49846 21.5552C10.797 24.3127 13.1605 25.3486 16.0348 24.4586C16.4287 24.3419 16.633 24.3856 16.8664 24.7212C17.8002 26.0197 18.8798 27.1577 20.368 27.8289C20.9224 28.0915 21.5644 28.1644 22.1771 28.3103ZM36.8692 32.1037C38.1678 32.4393 39.2766 32.3518 40.3562 32.0454C44.2664 30.9803 47.3448 28.6459 49.9856 25.6841C51.6051 23.875 52.9182 21.8762 53.5164 19.498C53.7207 18.6956 53.9249 17.8639 53.531 16.9593C52.6702 17.7472 51.8677 18.4767 51.0361 19.2354C51.3133 19.3813 51.5176 19.4834 51.751 19.6001C51.6197 20.1254 51.503 20.6068 51.3571 21.2196C49.796 20.3588 48.7309 20.9424 47.8701 22.2555C48.5704 22.7516 49.2707 23.2476 50.0294 23.7875C49.6938 24.2689 49.3874 24.692 49.081 25.1297C48.1765 24.5169 47.3448 23.9479 46.484 23.3643C45.9588 23.8458 45.4627 24.2981 44.9521 24.765C45.4336 25.6112 45.8858 26.3991 46.3381 27.2015C45.8275 27.5079 45.3898 27.7559 44.9229 28.0331C44.4852 27.3182 44.0767 26.6471 43.639 25.9322C43.0262 26.4866 42.5156 26.9972 41.9466 27.4495C41.5526 27.7705 41.4797 28.0769 41.5818 28.573C41.8882 29.8861 41.8444 29.8861 40.5021 30.0611C40.4146 30.0757 40.3125 30.0465 40.2103 30.0465C40.1228 29.7985 40.0499 29.5797 39.9477 29.2733C38.9556 30.207 37.9781 31.097 36.8692 32.1037ZM37.7592 34.0442C37.0151 33.8108 36.4315 33.5919 35.8188 33.446C35.6291 33.4022 35.3519 33.5044 35.206 33.6357C34.5057 34.2339 33.8345 34.8612 33.1488 35.474C32.0691 36.4515 31.471 36.4515 30.3913 35.4594C28.3633 33.6065 26.3499 31.7536 24.3219 29.9152C24.1322 29.7402 23.8258 29.5651 23.607 29.5943C22.9504 29.6818 22.3085 29.8715 21.5644 30.032C24.9784 33.1688 28.3779 36.2765 31.8065 39.4279C33.8199 37.6187 35.7604 35.8534 37.7592 34.0442ZM62.0953 9.21207C59.6734 11.4006 57.4411 13.4286 55.2088 15.4712C55.1067 15.5587 55.0483 15.7776 55.0629 15.9089C55.1797 16.5362 55.3256 17.1636 55.4715 17.8056C55.559 17.7764 55.6319 17.7618 55.6757 17.718C57.7183 15.8651 59.7755 14.0122 61.8035 12.1447C61.9348 12.0279 62.0661 11.8237 62.0807 11.6632C62.1099 10.9337 62.0953 10.1896 62.0953 9.21207ZM9.11912 24.2252C9.1483 24.196 9.17748 24.1814 9.19207 24.1522C8.90027 23.7437 8.55011 23.3498 8.31667 22.9121C7.93734 22.1388 7.35374 21.6281 6.65342 21.1613C5.01934 20.0524 3.77919 18.5642 3.42903 16.58C3.23936 15.4712 2.52446 14.9751 1.69283 14.2602C1.69283 15.3399 1.67824 16.2736 1.70742 17.2074C1.70742 17.397 1.86791 17.6159 2.01381 17.7618C4.39197 19.9211 6.75555 22.0804 9.11912 24.2252ZM1.79496 9.29961C1.4448 11.0942 1.64906 12.5094 3.38526 13.2973C3.57493 12.7574 3.7646 12.2176 3.92509 11.6632C3.96886 11.5319 3.93968 11.2984 3.85214 11.2109C3.21018 10.5835 2.52446 9.98534 1.79496 9.29961Z" fill="white"/>
</svg>
