<svg width="64" height="65" viewBox="0 0 64 65" fill="none" xmlns="http://www.w3.org/2000/svg">
<path d="M63.8124 33.9337C63.7872 33.9084 63.6989 33.858 63.4214 33.858C60.5077 33.8706 57.5435 33.8706 54.6928 33.8706C53.6459 33.8706 52.5863 33.8706 51.5268 33.8706H42.281C30.4746 33.8706 18.6556 33.8706 6.84924 33.8706C5.22208 33.8706 3.55708 33.8832 1.95515 33.8958C1.31185 33.8958 0.65594 33.9084 3.05176e-05 33.9084C0.0757124 35.2581 0.504576 39.635 0.93344 41.2117C2.23265 45.9797 4.55356 50.2431 7.8331 53.8885C10.709 57.0797 14.1778 59.6024 18.4286 61.608L19.7025 62.2135H16.0572C15.4391 62.2135 14.8211 62.2135 14.203 62.2135C13.2317 62.2135 12.9669 62.5666 12.8407 62.9577C12.7272 63.273 12.7146 63.6766 13.3705 64.2569H50.4041C51.0601 63.6766 51.0474 63.2856 50.9339 62.9577C50.7699 62.5036 50.4798 62.2135 49.559 62.2135C48.9788 62.2135 48.3986 62.2135 47.8183 62.2135C47.503 62.2135 47.1751 62.2135 46.8597 62.2135C46.7336 62.2135 46.5948 62.2135 46.4687 62.2135C46.3678 62.2135 46.2669 62.2135 46.166 62.2135H44.9677L45.2073 61.7468C45.3208 61.5197 45.4596 61.444 45.5857 61.3936C52.7881 58.1393 58.0606 52.8541 61.2771 45.677C62.8917 42.0821 63.7494 38.2728 63.8503 34.3499C63.8881 34.0598 63.8503 33.9715 63.8124 33.9337ZM61.5546 37.0871C60.2176 45.4625 56.0298 52.173 49.0923 57.0419C45.0434 59.8799 40.5655 61.5575 35.7723 62.0369C34.4857 62.163 33.2244 62.2261 31.9756 62.2261C22.9316 62.2261 15.2625 58.8204 9.13231 52.0595C7.30333 50.0413 5.72662 47.6321 4.45265 44.8949C4.30128 44.567 4.14992 44.2516 4.3139 43.9994C4.47787 43.7471 4.81844 43.7471 5.18424 43.7471C11.8442 43.7471 18.5042 43.7471 25.1516 43.7471H33.5649C37.0463 43.7471 40.5277 43.7471 44.009 43.7471H44.0721C44.4253 43.7471 44.7406 43.7471 45.056 43.6588C45.5353 43.52 45.7876 43.2173 45.838 42.7002C45.8885 42.2713 45.6362 41.8803 45.1821 41.6784C44.892 41.5523 44.5514 41.5523 44.2108 41.5523H44.1352H34.4731C24.7732 41.5523 14.7328 41.5523 4.8689 41.5523C4.62924 41.5523 4.44003 41.5523 4.26344 41.5649C3.2039 41.6028 3.1156 41.4514 2.86333 40.3288C2.8381 40.19 2.80026 40.0387 2.7498 39.8495C2.62367 39.3323 2.54799 38.8025 2.45969 38.298C2.38401 37.8691 2.32094 37.4276 2.22003 36.9988C2.16958 36.7717 2.13174 36.4438 2.33355 36.2041C2.52276 35.9645 2.85071 35.9266 3.14083 35.9266H3.15344C7.16458 35.9392 11.2514 35.9392 15.1869 35.9392H38.4716C45.7245 35.9392 53.2296 35.9392 60.6086 35.9266H60.6212C60.9239 35.9266 61.2393 35.9519 61.4285 36.1789C61.6303 36.4438 61.6051 36.7717 61.5546 37.0871Z" fill="white"/>
<path d="M36.794 20.235C36.8066 22.4676 35.8732 24.3218 33.9938 25.7598C33.2244 26.34 32.6946 26.9202 32.3036 27.5888C31.9126 28.2699 31.7738 28.9889 31.6603 29.7331C31.572 30.2629 31.3197 30.8809 30.5124 30.7926C29.8944 30.7296 29.5033 30.162 29.5664 29.443C29.7808 27.2608 30.7647 25.5201 32.4928 24.2588C33.5523 23.4767 34.2209 22.5685 34.5362 21.4459C35.0534 19.5917 34.3218 17.6744 32.6189 16.4383C31.1557 15.3662 30.2097 14.0417 29.8313 12.4902C29.1376 9.70263 30.0079 7.31865 32.3919 5.4266C33.9055 4.2283 34.6497 2.9291 34.738 1.31455C34.7506 1.02444 34.8641 0.78478 35.0533 0.620803C35.2426 0.456826 35.4948 0.36853 35.7849 0.36853C35.8228 0.36853 35.8732 0.36853 35.9237 0.36853C36.3652 0.406371 36.8066 0.633417 36.8066 1.97046C36.6553 3.86251 35.6336 5.60319 33.9433 6.86456C32.6568 7.81058 31.9504 8.90797 31.7864 10.1946C31.5468 11.9983 32.2531 13.5372 33.8929 14.7607C35.7976 16.1987 36.7688 18.0402 36.794 20.235Z" fill="white"/>
<path d="M25.2021 20.4873C25.1643 22.5686 24.2309 24.3471 22.5154 25.6211C20.9765 26.7689 20.1693 28.169 20.0557 29.8845C20.0431 30.1368 19.917 30.3638 19.7278 30.5404C19.5134 30.7296 19.2359 30.8179 18.9584 30.7927C18.3655 30.7548 17.9619 30.2755 17.9871 29.6701C18.088 27.7023 18.8575 26.0373 20.308 24.7381C20.4846 24.5742 20.6864 24.4102 20.8882 24.2588C21.1657 24.0318 21.4559 23.8047 21.7208 23.5398C22.7298 22.5307 23.2218 21.2315 23.1083 19.8945C23.0073 18.5701 22.3136 17.3718 21.1657 16.5266C19.4125 15.2527 18.416 13.739 18.1132 11.9227C17.6844 9.31164 18.6052 7.10426 20.8756 5.36357C22.137 4.39232 22.8308 3.32016 23.0704 1.98312L23.083 1.88221C23.1083 1.76868 23.1209 1.65516 23.1335 1.52903C23.2218 0.519934 23.7263 0.355957 24.1804 0.355957C24.2056 0.355957 24.2309 0.355957 24.2561 0.355957C24.7102 0.368571 25.24 0.557775 25.24 1.84437C25.0129 3.93823 24.0038 5.67891 22.3388 6.85198C21.1784 7.67187 20.4594 8.73141 20.2197 9.99278C19.8665 11.8344 20.5603 13.4363 22.3136 14.7481C24.2687 16.2618 25.2526 18.1916 25.2021 20.4873Z" fill="white"/>
<path d="M46.9606 16.1863C48.1084 17.7125 48.6004 19.5289 48.3355 21.2822C48.0706 23.0481 47.0741 24.65 45.5226 25.7979C44.3874 26.643 43.6937 27.6395 43.4162 28.863C43.3783 29.0522 43.3531 29.2414 43.3279 29.418C43.3026 29.5693 43.29 29.7207 43.2648 29.8595C43.126 30.5406 42.672 30.8938 42.0539 30.8055C41.5115 30.7298 41.0953 30.1748 41.1583 29.582C41.3854 27.3115 42.3692 25.5204 44.0847 24.259C45.4974 23.2247 46.2795 21.8246 46.2921 20.3235C46.2921 18.8099 45.51 17.3846 44.0721 16.3376C42.2557 15.0006 41.2088 13.0329 41.1835 10.939C41.1583 8.8199 42.1674 6.8774 43.9964 5.46467C45.4596 4.34206 46.2038 3.06808 46.3173 1.46615C46.3425 1.10035 46.4687 0.810238 46.6831 0.633647C46.8597 0.482283 47.0993 0.406601 47.3768 0.406601C47.4273 0.406601 47.4778 0.406601 47.5282 0.419215C48.4112 0.50751 48.4364 1.40308 48.4112 1.78149C48.1967 3.97626 47.2255 5.70433 45.3965 7.04138C44.0468 8.03786 43.3026 9.40013 43.3153 10.8759C43.3153 12.3643 44.1225 13.7897 45.4974 14.7988C46.0776 15.2024 46.5696 15.6691 46.9606 16.1863Z" fill="white"/>
</svg>
