<svg width="70" height="70" viewBox="0 0 70 70" fill="none" xmlns="http://www.w3.org/2000/svg">
<g clip-path="url(#clip0)">
<path d="M10.5 23.3334H16.3334V21.0001H11.6667V18.6667H15.1667C15.811 18.6667 16.3334 18.1444 16.3334 17.5001V12.8334C16.3334 12.1891 15.811 11.6667 15.1667 11.6667H10.5C9.85575 11.6667 9.33337 12.1891 9.33337 12.8334V15.1667H11.6667V14.0001H14V16.3334H10.5C9.85575 16.3334 9.33337 16.8558 9.33337 17.5001V22.1667C9.33337 22.811 9.85575 23.3334 10.5 23.3334Z" fill="#19BB4F"/>
<path d="M19.8333 18.6667H23.3333V23.3334H25.6666V11.6667H23.3333V16.3334H21V11.6667H18.6666V17.5001C18.6666 18.1444 19.189 18.6667 19.8333 18.6667Z" fill="#19BB4F"/>
<path d="M37.3333 4.66675C36.1211 4.66732 34.91 4.7334 33.7051 4.86499L33.9615 7.18579C46.7555 5.76335 59.0516 12.5776 64.6281 24.1794C70.2045 35.7817 67.8444 49.6404 58.7423 58.7424C49.6403 67.8445 35.7815 70.2046 24.1792 64.6282C12.5775 59.0518 5.76322 46.7556 7.18567 33.9616L4.86487 33.7052C4.73328 34.9101 4.6672 36.1212 4.66663 37.3334C4.66663 55.3746 19.2921 70.0001 37.3333 70.0001C55.3745 70.0001 70 55.3746 70 37.3334C70 19.2922 55.3745 4.66675 37.3333 4.66675Z" fill="#19BB4F"/>
<path d="M9.35901 36.1176C9.34249 36.5164 9.33337 36.9259 9.33337 37.3333C9.33337 52.7973 21.8693 65.3333 37.3334 65.3333C52.7974 65.3333 65.3334 52.7973 65.3334 37.3333C65.3334 21.8692 52.7974 9.33325 37.3334 9.33325C36.9261 9.33325 36.5165 9.34237 36.1177 9.35889L36.2157 11.6922C36.5865 11.6751 36.9591 11.6666 37.3334 11.6666C51.5088 11.6666 63 23.1578 63 37.3333C63 51.5087 51.5088 62.9999 37.3334 62.9999C23.1579 62.9999 11.6667 51.5087 11.6667 37.3333C11.6667 36.959 11.6747 36.5864 11.6912 36.2156L9.35901 36.1176Z" fill="#19BB4F"/>
<path d="M36.1666 14H38.5V16.3333H36.1666V14Z" fill="#19BB4F"/>
<path d="M14 36.1667H16.3333V38.5001H14V36.1667Z" fill="#19BB4F"/>
<path d="M20.0094 53.0075L21.6597 51.3572L23.3094 53.0075L21.6597 54.6572L20.0094 53.0075Z" fill="#19BB4F"/>
<path d="M36.1666 58.3333H38.5V60.6666H36.1666V58.3333Z" fill="#19BB4F"/>
<path d="M51.3578 53.0077L53.0075 51.3579L54.6578 53.0077L53.0075 54.6574L51.3578 53.0077Z" fill="#19BB4F"/>
<path d="M58.3334 36.1667H60.6667V38.5001H58.3334V36.1667Z" fill="#19BB4F"/>
<path d="M51.3578 21.659L53.0075 20.0093L54.6578 21.659L53.0075 23.3093L51.3578 21.659Z" fill="#19BB4F"/>
<path d="M22.1666 36.1666V38.4999H33.5496L36.5084 41.4587C36.9642 41.9139 37.7024 41.9139 38.1582 41.4587L41.4588 38.1581C41.9139 37.7024 41.9139 36.9641 41.4588 36.5084L38.5 33.5496V19.8333H36.1666V33.5496L33.5496 36.1666H22.1666ZM37.3333 35.6824L38.9842 37.3333L37.3333 38.9841L35.6824 37.3333L37.3333 35.6824Z" fill="#19BB4F"/>
<path d="M17.5 35C27.1649 35 35 27.1649 35 17.5C35 7.83512 27.1649 0 17.5 0C7.83512 0 0 7.83512 0 17.5C0.0108236 27.1603 7.83968 34.9892 17.5 35ZM17.5 2.33333C25.8763 2.33333 32.6667 9.1237 32.6667 17.5C32.6667 25.8763 25.8763 32.6667 17.5 32.6667C9.1237 32.6667 2.33333 25.8763 2.33333 17.5C2.34302 9.12769 9.12769 2.34302 17.5 2.33333Z" fill="#19BB4F"/>
</g>
<defs>
<clipPath id="clip0">
<rect width="70" height="70" fill="white"/>
</clipPath>
</defs>
</svg>
