<svg width="70" height="70" viewBox="0 0 70 70" fill="none" xmlns="http://www.w3.org/2000/svg">
<g clip-path="url(#clip0)">
<path d="M67.3274 12.947L24.4558 3.87416C22.6419 3.49041 20.8441 4.66063 20.4604 6.47447L19.6459 11.7087L69.1125 22.1766L69.927 16.9424C70.3108 15.1292 69.1412 13.3309 67.3274 12.947Z" fill="#19BB4F"/>
<path d="M49.2988 23.2866C48.798 21.4833 46.9135 20.4174 45.1108 20.9173L36.9722 23.1767L17.7859 19.1162L15.6758 29.0861L2.49191 32.7454C0.689279 33.2454 -0.376626 35.13 0.123328 36.9327L7.55321 63.7065C8.05397 65.5091 9.93861 66.5757 11.7412 66.0751L54.3601 54.2479C56.1627 53.7471 57.2286 51.8633 56.7287 50.0598L55.4533 45.4636L60.2331 46.4742C62.047 46.8586 63.8448 45.6884 64.2285 43.8745L67.2526 29.5843L50.0355 25.9409L49.2988 23.2866ZM54.2206 36.8942L55.2747 31.9127C55.433 31.1668 56.1725 30.6857 56.9183 30.8432L61.8998 31.8979C62.6463 32.0562 63.1274 32.795 62.9699 33.5416L61.9159 38.523C61.7576 39.2689 61.0181 39.7507 60.2723 39.5925L55.2908 38.5385C54.5435 38.3796 54.0623 37.64 54.2206 36.8942ZM3.23354 35.4172L15.0278 32.1452L42.8563 24.4226L45.8509 23.5906C45.9056 23.5759 45.9601 23.5689 46.0134 23.5689C46.2536 23.5689 46.5408 23.7265 46.6248 24.0284L46.9764 25.2946L48.078 29.264L4.24901 41.4267L2.79581 36.1917C2.70477 35.8633 2.90516 35.5082 3.23354 35.4172ZM54.0561 50.8007C54.1121 51.0038 54.0533 51.1718 53.9937 51.277C53.9349 51.382 53.8215 51.5193 53.6183 51.5753L11.0003 63.4025C10.9464 63.4172 10.891 63.4249 10.8377 63.4249C10.5975 63.4249 10.3103 63.2666 10.2264 62.9648L5.89276 47.348L49.7217 35.1846L52.3949 44.8163L54.0561 50.8007Z" fill="#19BB4F"/>
<path d="M17.8865 51.8695C17.682 51.1342 16.9144 50.7 16.1791 50.9038L11.2018 52.2855C10.4672 52.4894 10.0323 53.2577 10.2368 53.993L11.6178 58.9696C11.8224 59.7049 12.59 60.1391 13.3253 59.9346L18.3025 58.5536C19.0379 58.3497 19.4721 57.5815 19.2683 56.8461L17.8865 51.8695Z" fill="#19BB4F"/>
</g>
<defs>
<clipPath id="clip0">
<rect width="70" height="70" fill="white"/>
</clipPath>
</defs>
</svg>
