<svg width="42" height="42" viewBox="0 0 42 42" fill="none" xmlns="http://www.w3.org/2000/svg">
<path d="M36.5412 32.7279C36.5562 32.6561 36.5826 32.5962 36.5826 32.5206V27.5262C36.5826 23.4993 33.5207 20.2241 29.7544 20.2241C25.9881 20.2241 22.9265 23.4993 22.9265 27.5262L22.9304 31.8983C22.9304 34.8583 20.7302 37.2677 18.0286 37.2677C15.3273 37.2677 13.1291 34.8583 13.1291 31.8983V21.7498C17.9222 21.3715 21.7213 17.3889 21.7213 12.4927V3.96519C21.7213 3.43284 21.289 3 20.7573 3H17.7046C17.1729 3 16.7406 3.43284 16.7406 3.96519C16.7406 4.49786 17.1729 4.93038 17.7046 4.93038H19.7929V12.4924C19.7929 16.5713 16.4778 19.8924 12.4018 19.8924C8.32487 19.8924 5.01064 16.5713 5.01064 12.4924V4.9307H7.2608C7.79251 4.9307 8.22483 4.49818 8.22483 3.96551C8.22515 3.43284 7.79315 3 7.26112 3H4.04692C3.51489 3 3.08289 3.43284 3.08289 3.96519V12.4924C3.08289 17.2246 6.63255 21.1029 11.2007 21.7013V31.8983C11.2007 35.9255 14.2626 39.1984 18.0286 39.1984C21.7946 39.1984 24.8584 35.9255 24.8584 31.8983L24.8549 27.5262C24.8549 24.5643 27.0544 22.1548 29.7547 22.1548C32.4551 22.1548 34.6546 24.5643 34.6546 27.5262V32.5203C34.6546 32.5509 34.6657 32.5659 34.6695 32.592C33.0164 32.9241 31.766 34.391 31.766 36.1405C31.766 38.1369 33.3853 39.7605 35.3816 39.7605C37.374 39.7605 38.9972 38.1369 38.9972 36.1405C38.9965 34.5527 37.9647 33.2143 36.5412 32.7279ZM35.3829 37.8298C34.4545 37.8298 33.6956 37.0681 33.6956 36.1405C33.6956 35.213 34.4545 34.451 35.3829 34.451C36.3112 34.451 37.0701 35.213 37.0701 36.1405C37.0701 37.0681 36.3115 37.8298 35.3829 37.8298Z" fill="url(#paint0_linear)" stroke="#19BB4F" stroke-width="0.2"/>
<defs>
<linearGradient id="paint0_linear" x1="11.0381" y1="3" x2="39.8125" y2="39.1108" gradientUnits="userSpaceOnUse">
<stop stop-color="#00D274"/>
<stop offset="1" stop-color="#6CBFFF"/>
</linearGradient>
</defs>
</svg>
