<svg width="70" height="70" viewBox="0 0 70 70" fill="none" xmlns="http://www.w3.org/2000/svg">
<g clip-path="url(#clip0)">
<path d="M68.4471 11.8044L35.7921 0.137724C35.2765 -0.0442803 34.7141 -0.0442803 34.1985 0.137724L1.55162 11.8044C0.626312 12.1379 0.00952148 13.0159 0.00952148 13.9995C0.00952148 14.9831 0.626312 15.861 1.55162 16.1946L17.5 21.8926V29.1667C17.5 33.7027 33.2091 33.8334 35 33.8334C36.7908 33.8334 52.5 33.7027 52.5 29.1667V21.8926L56 20.6501V23.3334C56 24.6221 57.0446 25.6667 58.3333 25.6667H60.6666C61.9553 25.6667 63 24.6221 63 23.3334V19.8334C62.9965 19.2931 62.8662 18.7613 62.6196 18.2806L68.453 16.1946C69.3783 15.861 69.9951 14.9831 69.9951 13.9995C69.9951 13.0159 69.3783 12.1379 68.453 11.8044H68.4471ZM50.1666 26.6001C45.7228 24.5771 36.3591 24.5001 35 24.5001C33.6408 24.5001 24.2771 24.5771 19.8333 26.6001V16.4361C20.5333 15.5377 26.0353 14.0001 35 14.0001C43.9646 14.0001 49.4666 15.5377 50.1666 16.4361V26.6001ZM35 31.5001C26.3666 31.5001 20.9451 30.0744 19.9313 29.1667C20.9451 28.2591 26.369 26.8334 35 26.8334C43.631 26.8334 49.0548 28.2591 50.0686 29.1667C49.0548 30.0744 43.6333 31.5001 35 31.5001ZM56.5471 17.9726L52.5 19.4157V16.3334C52.5 11.7974 36.7908 11.6667 35 11.6667C33.2091 11.6667 17.5 11.7974 17.5 16.3334V19.4146L2.33329 14.0001L35.0163 2.33339L58.3333 10.6657V16.5481C57.5956 16.8102 56.9668 17.3117 56.5471 17.9726ZM60.6666 23.3334H58.3333V19.8334C58.3333 19.1891 58.8556 18.6667 59.5 18.6667C60.1443 18.6667 60.6666 19.1891 60.6666 19.8334V23.3334ZM60.6666 16.5014V11.4999L67.6666 14.0001L60.6666 16.5014Z" fill="#19BB4F"/>
<path d="M66.5 36.1668C66.43 36.1665 66.3601 36.1728 66.2912 36.1854C55.9397 37.7948 45.4756 38.5688 35 38.5001C24.5244 38.5688 14.0603 37.7948 3.70883 36.1854C3.63983 36.1736 3.57 36.1674 3.5 36.1668C2.68333 36.1668 0 37.0919 0 49.0001C0 60.9083 2.68333 61.8334 3.5 61.8334C3.57006 61.8319 3.63988 61.8249 3.70883 61.8124C11.6628 60.5525 19.6915 59.8206 27.7422 59.6214L25.4648 65.0837C25.115 65.9584 25.3277 66.9577 26.0034 67.614C26.6792 68.2704 27.6843 68.4538 28.5483 68.0786L29.4408 67.6971L29.827 68.5849C30.1918 69.4458 31.0375 70.0037 31.9725 70.0001H32.0017C32.9436 69.9927 33.7881 69.4178 34.1402 68.5441L36.1667 63.6931L38.1862 68.5254C38.5351 69.4073 39.3833 69.9903 40.3317 70.0001H40.3667C41.2953 70.0039 42.1365 69.4529 42.504 68.6001L42.8937 67.7053L43.7722 68.0821C44.64 68.4652 45.6535 68.2827 46.3331 67.621C47.0128 66.9592 47.2224 65.951 46.8627 65.0733L44.6297 59.7183C51.8882 59.9753 59.1242 60.6766 66.297 61.8183C66.3641 61.8294 66.432 61.8344 66.5 61.8334C67.3167 61.8334 70 60.9083 70 49.0001C70 37.0919 67.3167 36.1668 66.5 36.1668ZM38.7333 40.7984C39.2178 42.5799 39.5 44.4103 39.5745 46.2549C36.9292 45.0249 33.8266 45.3132 31.4533 47.0098C31.3937 44.9147 31.1252 42.8308 30.6518 40.7891C32.0651 40.8186 33.5144 40.8334 35 40.8334C36.2752 40.8334 37.513 40.8194 38.7333 40.7984ZM36.1667 59.5001C32.945 59.5001 30.3333 56.8884 30.3333 53.6668C30.3333 50.4451 32.945 47.8334 36.1667 47.8334C39.3883 47.8334 42 50.4451 42 53.6668C41.9961 56.8868 39.3867 59.4962 36.1667 59.5001ZM3.5 39.0834C4.39392 42.3098 4.78739 45.6543 4.66667 49.0001C4.78739 52.3459 4.39392 55.6903 3.5 58.9168C2.60608 55.6903 2.21261 52.3459 2.33333 49.0001C2.21261 45.6543 2.60608 42.3098 3.5 39.0834ZM5.85667 59.1151C6.49483 57.2647 7 54.1684 7 49.0001C7 43.8318 6.49483 40.7354 5.8555 38.8828C13.2692 39.9066 20.7335 40.5232 28.2147 40.7296C28.9144 43.4289 29.2348 46.2124 29.1667 49.0001C29.1667 49.1693 29.1667 49.3303 29.1597 49.4924C27.7596 51.8159 27.6185 54.6868 28.784 57.1364L28.7327 57.2601C21.0784 57.4477 13.4409 58.0678 5.85667 59.1174V59.1151ZM31.9748 67.6668L31.1232 65.7068C30.867 65.1182 30.1836 64.8471 29.5937 65.1001L27.6302 65.9681L30.366 59.4091C31.4892 60.5472 32.9221 61.3302 34.4867 61.6608L31.9748 67.6668ZM42.7397 65.1001C42.1497 64.8471 41.4663 65.1182 41.2102 65.7068L40.3468 67.6469L37.8455 61.6584C39.4113 61.3278 40.8454 60.5444 41.9697 59.4056L44.6997 65.9389L42.7397 65.1001ZM66.2667 59.4418C58.7712 58.2882 51.2131 57.5869 43.6333 57.3418L43.5505 57.1411C45.0177 54.0494 44.3887 50.3696 41.9778 47.9408C41.9688 45.5213 41.6894 43.1103 41.1448 40.7529C49.5574 40.5645 57.949 39.8311 66.2667 38.5573C66.808 39.4766 67.6667 43.1131 67.6667 49.0001C67.6667 54.8871 66.8022 58.5224 66.2667 59.4418Z" fill="#19BB4F"/>
</g>
<defs>
<clipPath id="clip0">
<rect width="70" height="70" fill="white"/>
</clipPath>
</defs>
</svg>
