<svg width="42" height="42" viewBox="0 0 42 42" fill="none" xmlns="http://www.w3.org/2000/svg">
<path d="M38.4269 17.2744H38.2223L35.0535 7.23788C34.6343 6.03895 33.1322 5.02625 31.7733 5.02625H10.1488C8.78979 5.02625 7.28772 6.03887 6.85357 7.28259L3.69973 17.2744H3.49513C2.25918 17.2744 1 18.5279 1 19.7584V34.2775C1 36.4543 2.48795 37.9745 4.68366 37.9745H5.69832C7.82916 37.9745 9.31711 36.4543 9.31711 34.2775V32.1785H32.605V34.2775C32.605 36.4543 34.0929 37.9745 36.2887 37.9745H37.3041C39.4349 37.9745 40.9229 36.4543 40.9229 34.2775V19.7584C40.922 18.4816 39.7094 17.2744 38.4269 17.2744ZM8.43883 7.78273C8.62597 7.24781 9.50511 6.68231 10.1488 6.68231H31.7733C32.417 6.68231 33.2961 7.24781 33.4683 7.73802L36.4924 17.2744H5.42971L8.43883 7.78273ZM7.65365 34.2775C7.65365 35.2636 7.14051 36.3185 5.63345 36.3185H4.61879C3.17661 36.3185 2.66347 35.2644 2.66347 34.2775V32.1006C2.87329 32.1505 3.08819 32.1766 3.30386 32.1785H7.65372V34.2775H7.65365ZM27.6147 30.5225H14.3074V27.2104H27.6147V30.5225ZM39.2586 34.2775C39.2586 35.2645 38.7455 36.3185 37.2384 36.3185H36.2238C34.7825 36.3185 34.2685 35.2644 34.2685 34.2775V32.1785H38.6183C38.8341 32.1767 39.0489 32.1506 39.2587 32.1006V34.2775H39.2586ZM39.2586 30.1813C39.2586 30.5059 38.7255 30.5225 38.6182 30.5225H29.2781V26.3825C29.2781 25.9252 28.9057 25.5545 28.4464 25.5545H13.4756C13.0163 25.5545 12.6439 25.9252 12.6439 26.3825V30.5225H3.30386C3.19657 30.5225 2.66347 30.506 2.66347 30.1813V19.7584C2.66347 19.4587 3.14417 18.9304 3.4952 18.9304H38.427C38.7921 18.9304 39.2587 19.3949 39.2587 19.7584V30.1813H39.2586Z" fill="#19BB4F"/>
<path fill-rule="evenodd" clip-rule="evenodd" d="M34 18H24C24.5783 15.2776 27.2913 13.5386 30 14C32.0336 14.522 33.5794 16.0436 34 18Z" stroke="#19BB4F" stroke-width="1.6"/>
<path d="M8.06959 20.5864C6.00254 20.5864 4.3269 22.2546 4.3269 24.3125C4.3269 26.3703 6.00254 28.0385 8.06959 28.0385C10.1367 28.0385 11.8123 26.3703 11.8123 24.3125C11.8123 22.2546 10.1366 20.5864 8.06959 20.5864ZM8.06959 26.3825C6.92121 26.3825 5.9903 25.4557 5.9903 24.3125C5.9903 23.1692 6.92121 22.2424 8.06959 22.2424C9.21798 22.2424 10.1489 23.1692 10.1489 24.3125C10.1489 25.4557 9.2179 26.3825 8.06959 26.3825Z" fill="#19BB4F"/>
<path d="M33.8526 20.5864C31.7855 20.5864 30.1099 22.2546 30.1099 24.3125C30.1099 26.3703 31.7855 28.0385 33.8526 28.0385C35.9196 28.0385 37.5952 26.3703 37.5952 24.3125C37.5952 22.2546 35.9196 20.5864 33.8526 20.5864ZM33.8526 26.3825C32.7042 26.3825 31.7733 25.4557 31.7733 24.3125C31.7733 23.1692 32.7042 22.2424 33.8526 22.2424C35.0009 22.2424 35.9319 23.1692 35.9319 24.3125C35.9319 25.4557 35.0009 26.3825 33.8526 26.3825Z" fill="#19BB4F"/>
</svg>
