<svg width="70" height="67" viewBox="0 0 70 67" fill="none" xmlns="http://www.w3.org/2000/svg">
<g clip-path="url(#clip0)">
<path d="M11.3308 40.6166C11.798 40.9152 12.3263 41.0578 12.849 41.0578C13.7308 41.0578 14.5966 40.6511 15.124 39.8987C19.5423 33.5944 26.9283 29.8307 34.8813 29.8307C42.8109 29.8307 50.1847 33.5772 54.6062 39.8526C55.4493 41.0491 57.1483 41.3664 58.4012 40.5615C59.6542 39.7566 59.9866 38.1341 59.1436 36.9378C55.6109 31.9241 50.546 28.2246 44.7582 26.2455C48.2292 23.5382 50.4492 19.4212 50.4492 14.818C50.4492 6.68387 43.5188 0.0664062 35 0.0664062C26.4812 0.0664062 19.5508 6.68387 19.5508 14.818C19.5508 19.3881 21.7386 23.4793 25.1666 26.1873C19.2883 28.1591 14.1472 31.9034 10.579 36.9946C9.73916 38.193 10.0758 39.8147 11.3308 40.6166ZM35 5.28821C40.5032 5.28821 44.9805 9.5633 44.9805 14.818C44.9805 20.0727 40.5032 24.3478 35 24.3478C29.4968 24.3478 25.0195 20.0727 25.0195 14.818C25.0195 9.5633 29.4968 5.28821 35 5.28821ZM45.9044 46.2964L41.828 49.1042C41.2215 49.522 40.9676 50.2626 41.1994 50.9385L42.841 55.4818C42.9103 55.6841 42.9369 55.8818 42.928 56.0703C42.8699 57.2905 41.2683 58.1252 40.0936 57.3161L36.0173 54.5074C35.7141 54.2985 35.3571 54.1941 35.0001 54.1941C34.6432 54.1941 34.2862 54.2985 33.9829 54.5074L29.9067 57.3161C28.732 58.1252 27.1227 57.2905 27.0718 56.0703C27.064 55.8818 27.0914 55.684 27.1607 55.4818L28.8008 50.9385C29.0325 50.2626 28.7786 49.522 28.1721 49.1042L24.0957 46.2964C22.7395 45.3622 23.4365 43.1463 25.1129 43.1463H30.1515C30.9013 43.1463 31.5658 42.8707 31.7974 42.1948L33.3543 37.6222C33.6134 36.8664 34.3067 36.4885 35.0001 36.4885C35.6936 36.4885 36.3869 36.8664 36.646 37.6222L38.2029 42.1948C38.4347 42.8707 39.099 43.1463 39.8487 43.1463H44.8874C46.5637 43.1463 47.2607 45.3622 45.9044 46.2964ZM69.2833 55.4345L65.2069 58.2424C64.6004 58.6601 64.3465 59.4007 64.5783 60.0767L66.2199 64.6199C66.2892 64.8223 66.3158 65.0199 66.307 65.2084C66.2488 66.4286 64.6472 67.2633 63.4725 66.4542L59.3962 63.6455C59.093 63.4367 58.736 63.3322 58.379 63.3322C58.0221 63.3322 57.6651 63.4367 57.3619 63.6455L53.2856 66.4542C52.1109 67.2633 50.5016 66.4286 50.4507 65.2084C50.4429 65.0199 50.4703 64.8221 50.5396 64.6199L52.1797 60.0767C52.4114 59.4007 52.1575 58.6601 51.551 58.2424L47.4746 55.4345C46.1184 54.5003 46.8154 52.2845 48.4918 52.2845H53.5304C54.2802 52.2845 54.9447 52.0089 55.1763 51.3329L56.7332 46.7603C56.9923 46.0046 57.6856 45.6267 58.379 45.6267C59.0725 45.6267 59.7658 46.0046 60.0249 46.7603L61.5818 51.3329C61.8136 52.0089 62.4779 52.2845 63.2276 52.2845H68.2663C69.9426 52.2845 70.6396 54.5003 69.2833 55.4345ZM22.5255 55.4345L18.4491 58.2424C17.8426 58.6601 17.5887 59.4007 17.8205 60.0767L19.4621 64.6199C19.5314 64.8223 19.558 65.0199 19.5491 65.2084C19.491 66.4286 17.8894 67.2633 16.7147 66.4542L12.6383 63.6455C12.335 63.4367 11.9781 63.3322 11.6211 63.3322C11.2641 63.3322 10.9071 63.4367 10.6039 63.6455L6.52764 66.4542C5.35295 67.2633 3.74363 66.4286 3.69277 65.2084C3.68498 65.0199 3.71232 64.8221 3.78164 64.6199L5.42172 60.0767C5.65346 59.4007 5.39957 58.6601 4.79309 58.2424L0.71668 55.4345C-0.63957 54.5003 0.0574218 52.2845 1.73387 52.2845H6.7725C7.52227 52.2845 8.18672 52.0089 8.41832 51.3329L9.97527 46.7603C10.2344 46.0046 10.9277 45.6267 11.6211 45.6267C12.3145 45.6267 13.0078 46.0046 13.2669 46.7603L14.8239 51.3329C15.0556 52.0089 15.7199 52.2845 16.4697 52.2845H21.5083C23.1848 52.2845 23.8818 54.5003 22.5255 55.4345Z" fill="#19BB4F"/>
</g>
<defs>
<clipPath id="clip0">
<rect width="70" height="66.8391" fill="white"/>
</clipPath>
</defs>
</svg>
