<svg width="42" height="42" viewBox="0 0 42 42" fill="none" xmlns="http://www.w3.org/2000/svg">
<path d="M39 18.5529V15.6888L31.293 5H10.707L3 15.6888V18.5529H4.57029V26.5475H3V28.6361H4.57029V35.9114H3V38H39V35.9114H37.4297V28.6361H39V26.5475H37.4297V18.5529H39ZM22.9453 35.9114H19.0547V28.6477H22.9453V35.9114ZM35.3203 35.9114H25.0547V28.6477H26.25V26.5591H15.75V28.6477H16.9453V35.9114H6.67966V18.5529H15.4386L20.9501 11.5758L26.5673 18.5529H35.3203V35.9114ZM36.8906 16.4644H27.5834L21.9408 9.4557H19.947L14.4107 16.4643L5.10938 16.4644V16.3578L11.7929 7.08861H30.2071L36.8906 16.3579V16.4644Z" fill="url(#paint0_linear)"/>
<path d="M21 17.6478C19.2471 17.6478 17.8209 19.0599 17.8209 20.7955C17.8209 22.5312 19.2471 23.9433 21 23.9433C22.753 23.9433 24.1791 22.5312 24.1791 20.7955C24.1791 19.0598 22.753 17.6478 21 17.6478ZM21 21.8546C20.4102 21.8546 19.9303 21.3795 19.9303 20.7954C19.9303 20.2115 20.4102 19.7363 21 19.7363C21.5899 19.7363 22.0698 20.2115 22.0698 20.7954C22.0698 21.3795 21.5899 21.8546 21 21.8546Z" fill="url(#paint1_linear)"/>
<path d="M12.199 23.542H10.0896V26.5125H12.199V23.542Z" fill="url(#paint2_linear)"/>
<path d="M12.199 28.6709H10.0896V31.6414H12.199V28.6709Z" fill="url(#paint3_linear)"/>
<path d="M31.9104 28.6709H29.801V31.6414H31.9104V28.6709Z" fill="url(#paint4_linear)"/>
<path d="M31.9104 23.542H29.801V26.5125H31.9104V23.542Z" fill="url(#paint5_linear)"/>
<defs>
<linearGradient id="paint0_linear" x1="10.9741" y1="5" x2="36.0341" y2="40.1166" gradientUnits="userSpaceOnUse">
<stop stop-color="#19BB4F"/>
<stop offset="1" stop-color="#6CBFFF"/>
</linearGradient>
<linearGradient id="paint1_linear" x1="19.2293" y1="17.6478" x2="24.1182" y2="23.9903" gradientUnits="userSpaceOnUse">
<stop stop-color="#19BB4F"/>
<stop offset="1" stop-color="#6CBFFF"/>
</linearGradient>
<linearGradient id="paint2_linear" x1="10.5568" y1="23.542" x2="12.9322" y2="25.7087" gradientUnits="userSpaceOnUse">
<stop stop-color="#19BB4F"/>
<stop offset="1" stop-color="#6CBFFF"/>
</linearGradient>
<linearGradient id="paint3_linear" x1="10.5568" y1="28.6709" x2="12.9322" y2="30.8376" gradientUnits="userSpaceOnUse">
<stop stop-color="#19BB4F"/>
<stop offset="1" stop-color="#6CBFFF"/>
</linearGradient>
<linearGradient id="paint4_linear" x1="30.2683" y1="28.6709" x2="32.6436" y2="30.8376" gradientUnits="userSpaceOnUse">
<stop stop-color="#19BB4F"/>
<stop offset="1" stop-color="#6CBFFF"/>
</linearGradient>
<linearGradient id="paint5_linear" x1="30.2683" y1="23.542" x2="32.6436" y2="25.7087" gradientUnits="userSpaceOnUse">
<stop stop-color="#19BB4F"/>
<stop offset="1" stop-color="#6CBFFF"/>
</linearGradient>
</defs>
</svg>
