<svg width="70" height="70" viewBox="0 0 70 70" fill="none" xmlns="http://www.w3.org/2000/svg">
<g clip-path="url(#clip0)">
<path d="M42.0708 63.7574C41.4936 63.9013 40.9051 64.029 40.321 64.1366C38.794 64.4206 37.7845 65.8892 38.0669 67.4175C38.2064 68.1694 38.6334 68.7957 39.2132 69.2045C39.8107 69.6251 40.5712 69.815 41.3462 69.6709C42.0418 69.5418 42.7429 69.3899 43.4308 69.2182C44.9387 68.843 45.8574 67.3154 45.4812 65.8082C45.1059 64.2997 43.5796 63.3818 42.0708 63.7574Z" fill="#19BB4F"/>
<path d="M62.8806 26.0388C63.0778 26.6329 63.4541 27.1179 63.9294 27.453C64.6342 27.9494 65.5565 28.1164 66.4366 27.8254C67.9121 27.3354 68.7116 25.7443 68.2235 24.2696C68.0011 23.5972 67.7543 22.9228 67.4914 22.2662C66.9142 20.8231 65.2774 20.1206 63.8336 20.6978C62.3913 21.2747 61.6884 22.912 62.2661 24.3555C62.487 24.9074 62.6939 25.4739 62.8806 26.0388Z" fill="#19BB4F"/>
<path d="M51.215 59.7397C50.7186 60.0674 50.2062 60.3846 49.6901 60.6818C48.3435 61.4585 47.8823 63.1798 48.6587 64.5258C48.8696 64.8919 49.1503 65.1912 49.4737 65.4199C50.3418 66.0306 51.5207 66.1221 52.5023 65.5567C53.1159 65.2027 53.7261 64.8263 54.3173 64.4353C55.6134 63.579 55.9702 61.8331 55.1134 60.5363C54.2568 59.2391 52.5116 58.8827 51.215 59.7397Z" fill="#19BB4F"/>
<path d="M69.973 33.8984C69.9118 32.3453 68.6035 31.1364 67.0499 31.197C65.4982 31.2583 64.2884 32.5669 64.3494 34.1195C64.3727 34.7131 64.3787 35.3156 64.365 35.9086C64.3432 36.8826 64.8196 37.7509 65.5599 38.2727C66.001 38.5833 66.5362 38.7712 67.1166 38.7845C68.6698 38.8189 69.9569 37.587 69.9914 36.0331C70.0069 35.3245 70.001 34.6066 69.973 33.8984Z" fill="#19BB4F"/>
<path d="M62.4215 52.3368C61.176 51.4024 59.414 51.6561 58.4812 52.8993C58.124 53.3754 57.7478 53.8456 57.3626 54.2984C56.3559 55.4811 56.4981 57.2576 57.6809 58.265C57.7483 58.3222 57.8164 58.3747 57.8872 58.4241C59.0629 59.253 60.6971 59.0625 61.6478 57.9469C62.1078 57.4067 62.5562 56.845 62.9831 56.2764C63.916 55.0332 63.6635 53.2699 62.4215 52.3368Z" fill="#19BB4F"/>
<path d="M66.5578 42.1645C65.0749 41.6996 63.4957 42.5251 63.031 44.008C62.8532 44.5745 62.6561 45.1437 62.4433 45.7013C61.9761 46.9285 62.4237 48.2789 63.45 49.0025C63.6382 49.1347 63.8455 49.2469 64.0708 49.332C65.5227 49.8861 67.1486 49.1576 67.702 47.7051C67.9547 47.0423 68.1891 46.365 68.4011 45.6915C68.8653 44.2083 68.0404 42.6295 66.5578 42.1645Z" fill="#19BB4F"/>
<path d="M29.7934 64.1619C27.2775 63.7102 24.8641 62.941 22.5755 61.8681C22.5485 61.8539 22.5242 61.8378 22.4958 61.8249C21.9565 61.5711 21.4181 61.2992 20.8963 61.0151C20.8945 61.013 20.8911 61.0116 20.8883 61.0104C19.9308 60.4831 18.9964 59.8998 18.0886 59.2607C4.85119 49.9359 1.66839 31.58 10.9938 18.3428C13.0216 15.4654 15.4755 13.0649 18.2112 11.1623C18.2449 11.1389 18.2786 11.1155 18.312 11.0919C27.9524 4.44944 41.0425 4.00179 51.279 10.8275L49.0804 14.0042C48.4692 14.8883 48.8453 15.5327 49.9153 15.4364L59.4653 14.5814C60.5367 14.4851 61.1774 13.5583 60.8893 12.5237L58.3247 3.28373C58.0376 2.24787 57.3026 2.12388 56.6908 3.00791L54.4871 6.19207C46.9749 1.14927 37.9647 -0.773622 29.0217 0.777152C28.1209 0.933042 27.2328 1.12384 26.3569 1.34594C26.3502 1.34714 26.3447 1.3479 26.3393 1.3491C26.3055 1.35738 26.2712 1.36836 26.2382 1.37754C18.5265 3.35791 11.7981 7.8557 6.99693 14.2731C6.95646 14.3211 6.91478 14.368 6.87656 14.4202C6.7169 14.6353 6.55846 14.8552 6.40332 15.0752C6.14962 15.4358 5.89953 15.8053 5.66028 16.1749C5.63034 16.2194 5.60747 16.2647 5.58128 16.3097C1.61933 22.4492 -0.291674 29.547 0.0360564 36.773C0.0368088 36.7968 0.0354545 36.8207 0.0360564 36.8451C0.0678062 37.5509 0.123782 38.2666 0.199771 38.9711C0.203834 39.0165 0.213915 39.0596 0.22159 39.105C0.300136 39.8134 0.398696 40.5235 0.522234 41.2334C1.77778 48.4769 5.19472 54.9949 10.3149 60.0666C10.3267 60.0785 10.3391 60.0915 10.3511 60.1038C10.3553 60.1085 10.36 60.1109 10.3641 60.1152C11.7397 61.472 13.236 62.727 14.8471 63.8617C19.0634 66.8326 23.7583 68.7965 28.8003 69.7013C30.3302 69.9762 31.7916 68.9578 32.066 67.4287C32.3403 65.8985 31.3228 64.4359 29.7934 64.1619Z" fill="#19BB4F"/>
<path d="M33.2731 12.519C32.0147 12.519 30.9954 13.5393 30.9954 14.7958V37.4792L51.741 48.2035C52.0749 48.3764 52.4325 48.4578 52.7843 48.4578C53.6083 48.4578 54.4041 48.0091 54.8087 47.2262C55.3858 46.1088 54.9491 44.736 53.8317 44.159L35.5482 34.7066V14.7958C35.5481 13.5393 34.53 12.519 33.2731 12.519Z" fill="#19BB4F"/>
</g>
<defs>
<clipPath id="clip0">
<rect width="70" height="70" fill="white"/>
</clipPath>
</defs>
</svg>
