<svg width="42" height="42" viewBox="0 0 42 42" fill="none" xmlns="http://www.w3.org/2000/svg">
<path d="M34.125 6.85168C29.1778 6.85168 23.4973 9.47444 23.2575 9.58412C22.8182 9.7893 22.6258 10.3146 22.8287 10.7584C23.0317 11.2005 23.5515 11.3951 23.9907 11.1917C24.0467 11.1652 29.5662 8.62022 34.1249 8.62022C38.5874 8.62022 40.2499 9.70433 40.2499 10.3888C40.2499 13.6872 12.8554 24.5373 6.99997 24.5373C6.0165 24.5373 3.381 24.5373 2.14545 24.3109C2.71942 23.8546 3.74842 23.2056 4.7757 22.6697C4.99792 22.553 5.15895 22.3496 5.22195 22.1056C5.28495 21.8615 5.24122 21.6015 5.10292 21.3929L2.00189 16.6903L2.79817 15.8855L9.23295 19.1379C9.47797 19.2617 9.76845 19.2617 10.0152 19.1379L15.2652 16.4851C15.6974 16.2658 15.8742 15.7352 15.6572 15.2984C15.4403 14.8633 14.9152 14.6846 14.4829 14.904L9.62497 17.3588L3.01695 14.0179C2.67922 13.8482 2.27317 13.9136 2.00722 14.1842L0.25725 15.9527C-0.0384727 16.2516 -0.084 16.7185 0.147 17.0686L3.11325 21.5643C0 23.3206 0 24.1925 0 24.5373C0 26.1308 2.24175 26.3059 6.99997 26.3059C11.6584 26.3059 42 15.9509 42 10.3888C42 9.32414 41.2335 6.85168 34.125 6.85168Z" fill="#19BB4F"/>
<path d="M26.2431 11.1634C26.1994 10.815 25.9579 10.5267 25.6253 10.4259L8.12534 5.12021C7.81731 5.02645 7.48483 5.11134 7.25556 5.34131L3.75553 8.87847C3.563 9.07304 3.47031 9.34711 3.50706 9.62127C3.54381 9.89542 3.70483 10.1359 3.94108 10.2721L16.1911 17.3464C16.3258 17.4242 16.4763 17.4631 16.6251 17.4631C16.7809 17.4631 16.9366 17.4206 17.0749 17.3375L25.8249 12.0318C26.1223 11.8514 26.2851 11.5101 26.2431 11.1634ZM16.6128 15.5548L5.80303 9.31171L8.12525 6.96659L23.2243 11.5454L16.6128 15.5548Z" fill="#19BB4F"/>
<path d="M39.375 7.73593C35.5985 7.73593 33.5965 9.67425 33.5125 9.75566C33.1695 10.097 33.1642 10.6506 33.4984 11.0008C33.6682 11.1794 33.8974 11.2696 34.1267 11.2696C34.3437 11.2696 34.5625 11.1883 34.7322 11.0255C34.7969 10.9636 36.3492 9.50455 39.3749 9.50455C39.8579 9.50455 40.2499 9.10837 40.2499 8.62024C40.2499 8.13212 39.858 7.73593 39.375 7.73593Z" fill="#19BB4F"/>
<path d="M34.9772 28.743L32.3522 18.1316C32.2349 17.6559 31.7554 17.3693 31.2917 17.4879C30.8227 17.6064 30.5374 18.0857 30.6547 18.5596L33.1082 28.483L30.8612 29.6185L23.4289 20.4396C23.1209 20.0593 22.5696 20.0045 22.1969 20.314C21.8224 20.6253 21.7664 21.1824 22.0726 21.5591L29.9476 31.2862C30.1173 31.4984 30.3693 31.6116 30.6248 31.6116C30.7578 31.6116 30.8909 31.5815 31.0203 31.5161L34.5203 29.7475C34.8862 29.5618 35.0769 29.1444 34.9772 28.743Z" fill="#19BB4F"/>
<path d="M20.125 35.1487H0.875027C0.392027 35.1487 0 35.5449 0 36.0331C0 36.5212 0.392027 36.9174 0.875027 36.9174H20.1251C20.6081 36.9174 21.0001 36.5212 21.0001 36.0331C21 35.5449 20.608 35.1487 20.125 35.1487Z" fill="#19BB4F"/>
</svg>
