<svg width="70" height="70" viewBox="0 0 70 70" fill="none" xmlns="http://www.w3.org/2000/svg">
<g clip-path="url(#clip0)">
<path d="M59.7488 10.2512C53.1382 3.64067 44.3492 0 35.0005 0H34.9995C25.6508 0 16.8618 3.64067 10.2512 10.2512C3.64067 16.8618 0 25.6513 0 35C0 44.3487 3.64067 53.1382 10.2512 59.7488C16.8618 66.3593 25.6513 70 35 70C44.3487 70 53.1382 66.3593 59.7488 59.7488C66.3593 53.1382 70 44.3487 70 35C70 25.6513 66.3593 16.8618 59.7488 10.2512ZM62.0351 49.9456H51.7913C53.1638 45.9241 53.9906 41.57 54.1833 37.0508H65.8285C65.5225 41.7035 64.182 46.0774 62.0351 49.9456ZM35 65.5951C30.6346 62.9974 27.0142 58.9712 24.4102 54.0472H45.5898C42.9858 58.9712 39.3654 62.9974 35 65.5951ZM22.5565 49.9456C21.0483 45.9888 20.134 41.6196 19.9225 37.0508H50.0775C49.866 41.6196 48.9512 45.9888 47.443 49.9456H22.5565ZM4.17152 37.0508H15.8167C16.0094 41.57 16.8362 45.9241 18.2087 49.9456H7.96494C5.81802 46.0774 4.47754 41.7035 4.17152 37.0508ZM7.96494 20.0544H18.2087C16.8362 24.0759 16.0094 28.43 15.8167 32.9492H4.17152C4.47754 28.2965 5.81802 23.9226 7.96494 20.0544ZM35 4.40491C39.3654 7.00256 42.9858 11.0288 45.5898 15.9528H24.4102C27.0142 11.0288 30.6346 7.00256 35 4.40491ZM47.4435 20.0544C48.9517 24.0112 49.866 28.3804 50.0775 32.9492H19.9225C20.134 28.3804 21.0488 24.0112 22.557 20.0544H47.4435ZM65.8285 32.9492H54.1833C53.9906 28.43 53.1638 24.0759 51.7913 20.0544H62.0351C64.182 23.9226 65.5225 28.2965 65.8285 32.9492ZM50.1491 15.9528C48.1998 11.7423 45.6064 8.02155 42.4928 5.02228C49.2508 6.71204 55.1356 10.6315 59.3135 15.9528H50.1491ZM27.5072 5.02228C24.3936 8.02155 21.8002 11.7423 19.8509 15.9528H10.6865C14.8644 10.6315 20.7492 6.71204 27.5072 5.02228ZM19.8509 54.0472C21.8002 58.2577 24.3936 61.9785 27.5072 64.9777C20.7492 63.288 14.8644 59.3685 10.6865 54.0472H19.8509ZM42.4928 64.9777C45.6064 61.9785 48.1998 58.2571 50.1491 54.0472H59.3135C55.1356 59.3685 49.2508 63.288 42.4928 64.9777Z" fill="#19BB4F"/>
</g>
<defs>
<clipPath id="clip0">
<rect width="70" height="70" fill="white"/>
</clipPath>
</defs>
</svg>
